<?xml version="1.0" standalone="no"?>
<!DOCTYPE svg PUBLIC "-//W3C//DTD SVG 1.1//EN" "http://www.w3.org/Graphics/SVG/1.1/DTD/svg11.dtd" >
<svg xmlns="http://www.w3.org/2000/svg">
<metadata></metadata>
<defs>
<font id="mrseavesromanregular" horiz-adv-x="938" >
<font-face units-per-em="2048" ascent="1638" descent="-410" />
<missing-glyph horiz-adv-x="477" />
<glyph horiz-adv-x="2048" />
<glyph horiz-adv-x="2048" />
<glyph unicode="&#xd;" horiz-adv-x="477" />
<glyph unicode=" "  horiz-adv-x="477" />
<glyph unicode="&#x09;" horiz-adv-x="477" />
<glyph unicode="&#xa0;" horiz-adv-x="477" />
<glyph unicode="!" horiz-adv-x="640" d="M203 82q0 41 27.5 70t68.5 29t70 -29t29 -70t-29 -70t-70 -29t-68.5 29t-27.5 70zM203 1164q0 41 27.5 70t68.5 29t70 -29t29 -70q-24 -159 -44.5 -367t-20.5 -469h-68q0 282 -21 471t-41 365z" />
<glyph unicode="&#x22;" horiz-adv-x="843" d="M154 1164q0 41 27 70t68 29t70 -29t29 -70q-32 -80 -54 -162q-27 -96 -28 -196h-34q0 108 -24 194zM495 1164q0 41 27.5 70t68.5 29t69.5 -29t28.5 -70q-32 -80 -54 -162q-27 -96 -27 -196h-35q0 108 -23 194q-28 82 -55 164z" />
<glyph unicode="#" horiz-adv-x="890" d="M58 536l19 107h159l39 227h-159l19 108h159l42 251h82l-43 -251h217l43 251h82l-43 -251h161l-19 -108h-161l-39 -227h161l-19 -107h-161l-41 -251h-82l43 251h-218l-41 -251h-82l42 251h-160zM317 643h217l39 227h-216z" />
<glyph unicode="$" horiz-adv-x="1020" d="M116 237q0 26 18 38.5t30 12.5q17 0 93 -79t185 -95v466l-99 50q-90 46 -142 112q-61 79 -61 176q0 114 86 195.5t216 81.5v204h73v-208q123 -12 200 -66q68 -48 68 -101q0 -36 -37 -48q-22 -9 -109 74q-53 49 -122 59v-402l145 -74q90 -48 141 -119.5t51 -146.5 q0 -145 -98.5 -240t-238.5 -95v-203h-73v207q-143 14 -234.5 77.5t-91.5 123.5zM266 956q0 -114 176 -210v367q-72 -7 -124 -50.5t-52 -106.5zM515 111q90 0 150 58t60 152q0 61 -57 116.5t-153 103.5v-430z" />
<glyph unicode="%" horiz-adv-x="1561" d="M119 969q0 121 90 207.5t216 86.5t215.5 -86.5t89.5 -207.5t-89.5 -207t-215.5 -86t-216 86t-90 207zM256 969q0 -97 42.5 -161t126.5 -64t126.5 62t42.5 163q0 97 -42.5 161.5t-126.5 64.5t-126.5 -62.5t-42.5 -163.5zM352 0l785 1266l73 -37l-785 -1265zM831 261 q0 121 89.5 207.5t216.5 86.5q126 0 215.5 -86.5t89.5 -207.5t-89.5 -207t-215.5 -86t-216 86t-90 207zM968 261q0 -97 42.5 -161t126.5 -64t126.5 62t42.5 163q0 97 -43 161t-126 64q-84 0 -126.5 -62t-42.5 -163z" />
<glyph unicode="&#x26;" horiz-adv-x="1344" d="M128 324q0 113 68 200q51 67 166 138q-55 85 -84 161t-29 145q0 126 100 210.5t243 84.5q121 0 206.5 -65.5t85.5 -170.5q0 -131 -176 -242q-97 -60 -193 -118q53 -79 140 -181q65 -77 195 -220q22 63 28 112.5t6 75.5q0 68 -40 93.5t-146 25.5v43h463v-43 q-123 0 -160 -35.5t-51.5 -144t-48.5 -183.5q67 -77 125 -116q67 -46 123 -46q31 0 63 16t70 54l34 -34q-39 -55 -97 -86.5t-110 -31.5q-79 0 -146 37q-57 31 -125 99q-55 -67 -130 -101.5t-176 -34.5q-160 0 -274 87q-130 99 -130 271zM276 307q0 -104 78 -183.5t196 -79.5 q77 0 136 28.5t102 81.5q-123 130 -206 225q-106 121 -169 208q-63 -55 -96 -113q-41 -73 -41 -167zM398 1002q-1 -130 78 -272q142 80 191 127q85 79 86 170q0 68 -44.5 112.5t-116.5 44.5q-90 0 -147 -61q-48 -53 -47 -121z" />
<glyph unicode="'" horiz-adv-x="501" d="M154 1164q0 41 27 70t68 29t70 -29t29 -70q-32 -80 -54 -162q-27 -96 -28 -196h-34q0 108 -24 194z" />
<glyph unicode="(" horiz-adv-x="733" d="M171 604q0 246 131 466q113 189 326 365l48 -42q-97 -109 -145 -174q-94 -128 -149 -265q-70 -174 -70 -350q0 -253 139 -491q73 -126 225 -297l-46 -43q-213 176 -326 364q-133 222 -133 467z" />
<glyph unicode=")" horiz-adv-x="733" d="M58 -184q97 109 145 174q94 128 149 264q70 174 70 350q0 253 -139 492q-73 126 -225 297l48 42q215 -177 326 -363q131 -221 131 -468q0 -246 -131 -466q-113 -188 -328 -365z" />
<glyph unicode="*" horiz-adv-x="832" d="M73 736q0 55 50 85q14 9 95 14.5t161 45.5q-87 43 -163 46t-93 13q-49 29 -50 86q0 27 12 46q31 49 87 49q24 0 48 -13q38 -55 75.5 -103.5t102.5 -91.5q0 75 -24 135q-27 58 -53 116q0 41 27 70t68 29t70 -29t29 -70q-31 -60 -52 -114q-27 -65 -28 -139 q63 43 101.5 92.5t77.5 100.5q24 15 52 16q53 0 82 -48q12 -22 11 -48q0 -58 -47 -87q-15 -9 -92 -11.5t-166 -44.5q85 -41 162 -43.5t97.5 -14.5t33 -35t12.5 -51q0 -26 -11 -48q-29 -48 -84 -47q-26 0 -50 15q-41 53 -76 99q-41 53 -105 94q0 -77 26.5 -136t55.5 -117 q0 -41 -29 -70t-70 -29t-68 29t-27 70q29 58 53 117t24 134q-63 -41 -101.5 -92t-76.5 -102q-20 -14 -49 -14q-55 0 -86 49q-12 22 -12 47z" />
<glyph unicode="+" d="M102 408v90h321v321h91v-321h322v-90h-322v-323h-91v323h-321z" />
<glyph unicode="," horiz-adv-x="640" d="M198 -222q58 60 83.5 108t34.5 111l-17 -2q-41 0 -68.5 29t-27.5 70t27.5 70t68.5 29q44 0 77.5 -33.5t33.5 -96.5q0 -73 -46 -157q-53 -96 -142 -152z" />
<glyph unicode="-" d="M171 374v90h597v-90h-597z" />
<glyph unicode="." horiz-adv-x="640" d="M203 90q0 44 33.5 76t79.5 32q48 0 82 -31t34 -77q0 -43 -34 -75t-82 -32t-80.5 30.5t-32.5 76.5z" />
<glyph unicode="/" horiz-adv-x="711" d="M20 -9l589 1275l82 -29l-589 -1273z" />
<glyph unicode="0" horiz-adv-x="1211" d="M128 444q0 198 140 338t338 140t338 -140t140 -338t-140 -338t-338 -140t-338 140t-140 338zM259 444q0 -148 102.5 -254t244.5 -106t244 105.5t102 254.5q0 148 -102 254t-244 106t-244.5 -106t-102.5 -254z" />
<glyph unicode="1" horiz-adv-x="742" d="M102 0v43q128 0 162.5 41.5t34.5 197.5v324q0 154 -34.5 196.5t-162.5 42.5v42h538v-42q-128 0 -162 -42t-34 -197v-324q0 -154 34 -196.5t162 -42.5v-43h-538z" />
<glyph unicode="2" horiz-adv-x="1064" d="M125 662q0 102 95 178q106 82 270 82q157 0 274 -76t117 -199q0 -102 -94 -205q-31 -34 -96 -82l-314 -241h529l-51 -281h-43q0 102 -43.5 132t-195.5 30h-421v49l362 286q108 84 157 174q39 72 39 136q0 87 -59.5 138.5t-160.5 51.5q-84 0 -148 -54t-64 -138 q0 -32 7 -57t29 -59l-63 -63q-63 39 -94.5 89.5t-31.5 108.5z" />
<glyph unicode="3" horiz-adv-x="1041" d="M125 662q0 102 95 178q106 82 270 82q157 0 274 -76t117 -199q0 -102 -94 -205q-31 -34 -96 -82l-94 -72q147 -31 233 -120t86 -209q0 -142 -116.5 -241.5t-289.5 -99.5q-166 0 -281 85q-97 72 -98 145q0 48 53 48q29 0 65 -60q27 -46 43 -61q36 -38 72 -55 q53 -26 129 -25q121 0 185 76q58 70 58 188q0 99 -47 169q-54 86 -162 108q-10 -7 -56 -59q-32 -36 -56 -35q-15 0 -29 12t-14 34q0 20 13.5 39t39.5 38l152 119q60 46 98 116t38 147q0 87 -60.5 137.5t-162.5 50.5q-75 0 -140 -52q-72 -58 -72 -140q0 -51 36 -116l-63 -63 q-63 39 -94.5 89.5t-31.5 108.5z" />
<glyph unicode="4" horiz-adv-x="1105" d="M73 85v40l572 882h38v-847h22q133 0 179 36q34 27 58 120l10 41h43l-17 -272h-295v-152q0 -154 34 -196t162 -42v-43h-538v43q128 0 162.5 41.5t34.5 196.5v152h-465zM184 160h354v547z" />
<glyph unicode="5" horiz-adv-x="1008" d="M133 -159q0 55 56 55q24 0 85.5 -100.5t193.5 -100.5q119 0 184 102q58 92 58 247q0 157 -56 244q-63 97 -186 98q-92 0 -147 -41q-67 -49 -84 -161h-75l63 703h347q131 0 179 36q36 27 58 120h46l-49 -301h-519l-31 -361q32 41 97 65.5t132 24.5q172 0 284 -123.5 t112 -303.5q0 -174 -121.5 -300t-291.5 -126q-145 0 -248 82q-87 70 -87 141z" />
<glyph unicode="6" horiz-adv-x="1075" d="M128 544q0 288 116 494q131 232 355 232q119 0 215 -53q87 -48 87 -103q0 -26 -17 -40t-39 -14q-19 0 -87.5 71.5t-156.5 71.5q-159 0 -237 -188q-65 -155 -65 -402q41 55 95 85q65 36 149 36q171 0 292 -112.5t121 -271.5t-121.5 -271.5t-291.5 -112.5q-157 0 -265 109 q-150 152 -150 469zM297 500q0 -261 96 -375q63 -77 150 -77q125 0 189 95q55 82 55 209q0 128 -53 206q-63 94 -191 94q-90 0 -158.5 -42.5t-87.5 -109.5z" />
<glyph unicode="7" horiz-adv-x="964" d="M125 563l85 504h43q0 -102 43.5 -132t195.5 -30h365v-57l-453 -1130q-17 -43 -23 -56q-26 -44 -62 -44q-7 0 -25.5 5t-32.5 21t-14 45q0 27 14 55l488 1015h-334q-131 0 -179 -35q-36 -27 -59 -120l-10 -41h-42z" />
<glyph unicode="8" horiz-adv-x="1082" d="M128 307q0 142 94 237q67 68 206 128q-111 68 -160 123q-70 77 -70 173q0 126 100 210.5t243 84.5q142 0 242.5 -82t100.5 -196q0 -99 -78 -173q-57 -52 -183 -112q128 -65 176 -99q155 -109 155 -277q0 -152 -120.5 -255t-292.5 -103q-171 0 -292 99t-121 242zM294 307 q0 -102 59 -177q68 -85 188 -86q116 0 186 82q61 73 61 164q0 113 -88 202q-60 59 -207 143q-92 -53 -143 -133q-56 -87 -56 -195zM364 1002q0 -94 54 -161q45 -54 142 -107q75 41 117 111.5t42 156.5q0 70 -40 121q-48 61 -138 61t-138 -61q-39 -49 -39 -121z" />
<glyph unicode="9" horiz-adv-x="1075" d="M119 538q0 159 121.5 271.5t291.5 112.5q157 0 265 -110q150 -152 150 -469q0 -288 -116 -493q-131 -232 -355 -232q-119 0 -210.5 50t-91.5 105q0 26 17 40.5t39 14.5q19 0 87.5 -72t156.5 -72q159 0 238 188q65 155 65 403q-41 -55 -101 -88t-144 -33 q-171 0 -292 112.5t-121 271.5zM288 536q0 -128 53 -207q63 -94 191 -93q90 0 158.5 42t87.5 109q0 261 -95 376q-63 77 -151 77q-125 0 -189 -96q-55 -82 -55 -208z" />
<glyph unicode=":" horiz-adv-x="686" d="M246 82q0 41 27 70t68 29t70 -29t29 -70t-29 -70t-70 -29t-68 29t-27 70zM246 471q0 41 27 70t68 29t70 -29t29 -70t-29 -70t-70 -29t-68 29t-27 70z" />
<glyph unicode=";" horiz-adv-x="686" d="M241 -234q58 60 83 108t34 111l-17 -2q-41 0 -68 29t-27 70t27 70t68 29q44 0 77.5 -33.5t33.5 -96.5q0 -73 -46 -157q-53 -96 -141 -152zM246 471q0 41 27 70t68 29t70 -29t29 -70t-29 -70t-70 -29t-68 29t-27 70z" />
<glyph unicode="&#x3c;" horiz-adv-x="1024" d="M171 548l674 445l31 -36l-477 -409l477 -408l-31 -38z" />
<glyph unicode="=" d="M171 273v91h597v-91h-597zM171 529v91h597v-91h-597z" />
<glyph unicode="&#x3e;" horiz-adv-x="1024" d="M148 140l477 408l-477 409l31 36l674 -445l-674 -446z" />
<glyph unicode="?" horiz-adv-x="1032" d="M150 1026q0 97 97.5 167t245.5 70q177 0 302 -91q135 -97 135 -256q0 -160 -109 -262q-75 -70 -205 -110q-80 -24 -111 -23v-193h-90v336q154 0 256 61q123 73 123 215q0 118 -93 188t-225 70q-108 0 -173.5 -42.5t-65.5 -95.5q0 -24 20.5 -38.5t68.5 -14.5q34 0 58 -22 t24 -58q0 -44 -38 -70q-31 -20 -66 -21q-58 0 -103 50q-51 56 -51 140zM365 82q0 41 27.5 70t68.5 29t70 -29t29 -70t-29 -70t-70 -29t-68.5 29t-27.5 70z" />
<glyph unicode="@" horiz-adv-x="1448" d="M80 563q0 295 211.5 507t508.5 212q246 0 409 -149.5t163 -390.5q0 -195 -123 -349t-257 -154q-56 0 -91.5 30t-45.5 76q-32 -46 -92 -79.5t-109 -33.5q-106 0 -164 77t-58 203q0 27 1.5 43.5t6.5 52.5q29 155 139 265t240 110q68 0 132 -34h114l-90 -514q-5 -26 -6 -48 q0 -75 70 -75q85 0 173 127q94 137 94 300q0 213 -144 343q-133 119 -331 119q-256 0 -436 -188.5t-180 -442.5q0 -256 150 -409.5t393 -153.5q118 0 224.5 33t208.5 98l22 -37q-119 -85 -237.5 -124.5t-234.5 -39.5q-276 0 -468.5 180t-192.5 446zM561 500q0 -84 32.5 -135 t95.5 -51q60 0 114 53.5t69 135.5l63 362q-20 24 -44 36q-34 17 -82 17q-85 0 -150 -90.5t-87 -219.5q-10 -56 -11 -108z" />
<glyph unicode="A" horiz-adv-x="1262" d="M-77 0v43q142 0 185 58q17 22 59 121l451 1041h27l452 -1041q51 -118 82 -143q43 -36 162 -36v-43h-568v43q181 0 181 80q0 31 -20 75l-99 229h-495l-99 -229q-19 -46 -19 -73q0 -82 179 -82v-43h-478zM372 502h428l-215 493z" />
<glyph unicode="B" horiz-adv-x="1225" d="M77 0v43q128 0 162 41.5t34 197.5v665q0 154 -34 196.5t-162 42.5v43h551q189 0 295 -89q101 -84 101 -218q0 -77 -43.5 -144.5t-116.5 -110.5q119 -38 190.5 -124.5t71.5 -197.5q0 -150 -112 -244q-121 -101 -328 -101h-609zM435 314q0 -154 34 -196.5t162 -42.5h53 q126 0 193.5 76t67.5 194t-63 191q-70 80 -198 80h-249v-302zM435 691h183q111 0 168 64t57 167q0 101 -55 163q-60 68 -170 69h-183v-463z" />
<glyph unicode="C" horiz-adv-x="1416" d="M145 614q0 266 184.5 457.5t443.5 191.5q108 0 204 -44.5t178 -129.5q20 17 41 49.5t29 68.5h41v-451h-42q-43 201 -157.5 314t-284.5 113q-225 0 -345 -188q-101 -157 -101 -381t99 -378q121 -189 347 -190q169 0 284 113.5t158 313.5h42v-451h-41q-9 38 -28 70.5 t-42 47.5q-82 -84 -178 -129t-204 -45q-259 0 -443.5 189.5t-184.5 458.5z" />
<glyph unicode="D" horiz-adv-x="1460" d="M77 0v43q128 0 162 41.5t34 197.5v665q0 154 -34 196.5t-162 42.5v43h556q340 0 519 -179q164 -164 164 -436q0 -271 -162 -433q-179 -181 -521 -181h-556zM435 314q0 -155 33.5 -197t157.5 -42h9q271 0 392 179q92 135 93 360q0 222 -93 359q-123 181 -392 181h-200 v-840z" />
<glyph unicode="E" horiz-adv-x="1192" d="M77 0v43q128 0 162 41.5t34 197.5v665q0 154 -34 196.5t-162 42.5v43h935l17 -272h-43l-10 41q-22 90 -58 118q-48 38 -179 38h-304v-466h103q154 0 196.5 34t42.5 162h42v-468h-42q0 128 -42 162.5t-197 34.5h-103v-299q0 -154 34 -196.5t162 -42.5h176q133 0 179 36 q34 27 58 119l11 41h42l-17 -271h-1003z" />
<glyph unicode="F" horiz-adv-x="1097" d="M77 0v43q128 0 162 41.5t34 197.5v665q0 154 -34 196.5t-162 42.5v43h969l17 -272h-42l-11 41q-22 90 -58 118q-48 38 -179 38h-338v-466h103q154 0 196.5 34t42.5 162h42v-468h-42q0 128 -42 162.5t-197 34.5h-103v-331q0 -154 34 -196.5t162 -42.5v-43h-554z" />
<glyph unicode="G" horiz-adv-x="1484" d="M145 614q0 266 184.5 457.5t443.5 191.5q108 0 204 -44.5t178 -129.5q20 17 41 49.5t29 68.5h41v-451h-42q-41 201 -157 314t-287 113q-225 0 -347 -188q-101 -157 -100 -381q0 -229 100 -375q126 -186 386 -186q142 0 236 72q102 77 102 210q0 68 -43.5 99.5 t-149.5 31.5v43h538v-43q-128 0 -162 -42t-34 -197v-155q-99 0 -330 -72q-109 -34 -203 -34q-259 0 -443.5 189.5t-184.5 458.5z" />
<glyph unicode="H" horiz-adv-x="1566" d="M77 0v43q128 0 162 41.5t34 197.5v665q0 154 -34 196.5t-162 42.5v43h554v-43q-128 0 -162 -41.5t-34 -197.5v-258h697v258q0 154 -34.5 196.5t-162.5 42.5v43h555v-43q-128 0 -162 -41.5t-34 -197.5v-665q0 -154 34 -196.5t162 -42.5v-43h-555v43q128 0 162.5 41.5 t34.5 197.5v332h-697v-332q0 -154 34 -196.5t162 -42.5v-43h-554z" />
<glyph unicode="I" horiz-adv-x="708" d="M77 0v43q128 0 162 41.5t34 197.5v665q0 154 -34 196.5t-162 42.5v43h554v-43q-128 0 -162 -41.5t-34 -197.5v-665q0 -154 34 -196.5t162 -42.5v-43h-554z" />
<glyph unicode="J" horiz-adv-x="708" d="M-224 -263q0 29 20.5 49.5t51.5 20.5q29 0 49.5 -20.5t20.5 -49.5q0 -49 43 -91t116 -42q94 0 145 69t51 214v1060q0 154 -34 196.5t-162 42.5v43h554v-43q-128 0 -162 -41.5t-34 -197.5v-1037q0 -198 -118 -292q-92 -73 -238 -74q-108 0 -197 48q-106 56 -106 145z" />
<glyph unicode="K" horiz-adv-x="1495" d="M77 0v43q128 0 162 41.5t34 197.5v665q0 154 -34 196.5t-162 42.5v43h554v-43q-128 0 -162 -41.5t-34 -197.5v-287l420 359q102 89 102 128t-93 39v43h476v-43q-113 0 -193 -37q-70 -32 -183 -130l-358 -306l635 -551q56 -49 136 -84t128 -35v-43h-575v43q125 0 125 49 q0 27 -48 70l-517 449l-55 -44v-285q0 -154 34 -196.5t162 -42.5v-43h-554z" />
<glyph unicode="L" horiz-adv-x="1177" d="M77 0v43q128 0 162 41.5t34 197.5v665q0 154 -34 196.5t-162 42.5v43h554v-43q-128 0 -162 -41.5t-34 -197.5v-633q0 -154 34 -196.5t162 -42.5h245q133 0 179 36q34 27 58 119l10 41h43l-17 -271h-1072z" />
<glyph unicode="M" horiz-adv-x="1689" d="M77 0v43q128 0 162 41.5t34 197.5v665q0 154 -34 196.5t-162 42.5v43h350l433 -999l432 999h321v-43q-128 0 -162 -41.5t-34 -197.5v-665q0 -154 34 -196.5t162 -42.5v-43h-553v43q128 0 162 41.5t34 197.5v669l-427 -985h-27l-454 1046v-730q0 -154 34 -196.5t162 -42.5 v-43h-467z" />
<glyph unicode="N" horiz-adv-x="1484" d="M77 0v43q128 0 162 41.5t34 197.5v665q0 154 -34 196.5t-162 42.5v43h290l787 -975v693q0 154 -34.5 196.5t-162.5 42.5v43h468v-43q-128 0 -162 -41.5t-34 -197.5v-981h-48l-833 1029v-713q0 -154 34 -196.5t162 -42.5v-43h-467z" />
<glyph unicode="O" horiz-adv-x="1655" d="M145 614q0 268 200.5 458.5t482.5 190.5t482 -190.5t200 -458.5t-200.5 -458t-481.5 -190q-282 0 -482.5 190t-200.5 458zM451 236q133 -189 377 -190q242 0 375 188q113 159 113 380q0 222 -111 379q-133 190 -377 190q-242 0 -376 -188q-112 -158 -112 -377 q0 -226 111 -382z" />
<glyph unicode="P" horiz-adv-x="1105" d="M77 0v43q128 0 162 41.5t34 197.5v665q0 154 -34 196.5t-162 42.5v43h541q208 0 327 -101q113 -94 113 -246q0 -150 -113 -244q-120 -100 -323 -100h-4h-183v-256q0 -154 34 -196.5t162 -42.5v-43h-554zM435 613h181q126 0 193.5 76t67.5 193q0 118 -63 191 q-70 80 -198 81h-181v-541z" />
<glyph unicode="Q" horiz-adv-x="1655" d="M145 614q0 268 200.5 458.5t482.5 190.5t482 -190.5t200 -458.5q0 -254 -177.5 -435t-436.5 -210q-67 -7 -142 -36.5t-129 -79.5q29 7 65.5 10.5t67.5 3.5q126 0 249 -58q99 -55 206.5 -112t204.5 -57q138 0 221 47t134 151l33 -15q-44 -131 -140 -224 q-123 -118 -285 -118q-109 0 -244 84q-111 79 -221 155q-123 84 -204 84q-114 0 -169 -65q-60 -72 -77 -74q-27 -3 -47.5 16t-20.5 51q0 49 90 123q99 80 229 119q-251 43 -411.5 222t-160.5 418zM333 614q0 -220 114 -378q137 -189 381 -190q244 0 379 188q116 160 116 380 t-115 379q-136 190 -380 190t-379 -188q-116 -160 -116 -381z" />
<glyph unicode="R" horiz-adv-x="1269" d="M77 0v43q128 0 162 41.5t34 197.5v665q0 154 -34 196.5t-162 42.5v43h541q208 0 327 -101q113 -94 113 -246q0 -135 -97 -230.5t-266 -112.5l199 -235q96 -114 193 -181.5t190 -79.5v-43h-338l-407 538h-97v-256q0 -154 34 -196.5t162 -42.5v-43h-554zM435 613h181 q126 0 193.5 76t67.5 193q0 118 -63 191q-70 80 -198 81h-181v-541z" />
<glyph unicode="S" horiz-adv-x="1020" d="M118 -34v450h42q7 -48 14 -95q27 -108 99 -178q99 -97 265 -97q111 0 183.5 64t72.5 161q0 68 -65 133q-58 58 -171 117l-196 100q-97 49 -157 132q-70 96 -70 206q0 128 96.5 216t242.5 88q84 0 147 -24q49 -19 104 -60q20 19 36 40.5t22 53.5h41v-450h-42 q0 145 -67 240q-82 118 -246 118q-87 0 -143 -51t-56 -132q0 -75 58 -131q49 -48 191 -121l196 -101q111 -56 166 -143q48 -75 47 -167q0 -164 -113.5 -266.5t-276.5 -102.5q-75 0 -151 25q-85 34 -169 70q-20 -17 -34 -37q-19 -27 -25 -58h-41z" />
<glyph unicode="T" horiz-adv-x="1312" d="M17 952l17 277h1244l17 -277h-42l-11 41q-22 90 -58 118q-48 38 -179 38h-268v-867q0 -154 34.5 -196.5t162.5 -42.5v-43h-555v43q128 0 162 41.5t34 197.5v867h-268q-133 0 -179 -36q-34 -27 -58 -120l-10 -41h-43z" />
<glyph unicode="U" horiz-adv-x="1466" d="M46 1186v43h555v-43q-128 0 -162.5 -41.5t-34.5 -197.5v-502q0 -191 103 -291q97 -96 258 -96q169 0 268 94q108 102 107 293v502q0 154 -34 196.5t-162 42.5v43h479v-43q-128 0 -162 -41.5t-34 -197.5v-490q0 -232 -145 -367q-134 -124 -345 -124h-3q-213 0 -348 124 q-143 133 -144 367v490q0 154 -34 196.5t-162 42.5z" />
<glyph unicode="V" horiz-adv-x="1262" d="M-79 1186v43h569v-43q-181 0 -181 -80q0 -31 20 -75l349 -797l344 797q19 46 19 73q0 82 -179 82v43h478v-43q-142 0 -185 -58q-17 -22 -59 -121l-451 -1041h-27l-452 1041q-51 118 -82 143q-43 36 -163 36z" />
<glyph unicode="W" horiz-adv-x="1624" d="M-87 1186v43h573v-43q-96 0 -135 -18.5t-39 -64.5q0 -26 14 -72l224 -707l286 905h29l287 -903l224 705q12 38 12 70q0 44 -36 64.5t-120 20.5v43h461v-43q-121 0 -169 -37q-39 -32 -75 -142l-331 -1041h-27l-287 906l-289 -906h-27l-331 1041q-38 118 -78 148.5 t-166 30.5z" />
<glyph unicode="X" horiz-adv-x="1257" d="M-43 0v43q97 0 176 56q51 38 120 123l300 387l-268 398q-61 87 -121 128q-75 51 -174 51v43h582v-43q-77 0 -112 -17t-35 -49q0 -38 38 -89l194 -289l224 289q42 52 42 88q0 34 -35.5 50.5t-116.5 16.5v43h487v-43q-113 0 -179 -49q-36 -27 -116 -130l-260 -335l306 -450 q67 -96 123 -133q68 -46 172 -46v-43h-584v43q79 0 114 16t35 49q0 36 -40 90l-228 341l-266 -341q-19 -24 -28.5 -44.5t-9.5 -39.5q0 -34 35 -52.5t112 -18.5v-43h-487z" />
<glyph unicode="Y" horiz-adv-x="1280" d="M-77 1186v43h582v-43q-77 0 -112 -16t-35 -49q0 -20 16 -51q9 -17 22 -39l293 -452l299 452q43 65 43 97q0 58 -152 58v43h478v-43q-142 0 -212 -68q-29 -27 -83 -111l-340 -512v-213q0 -154 34 -196.5t162 -42.5v-43h-554v43q128 0 162 41.5t34 197.5v199l-342 526 q-67 102 -128 140.5t-167 38.5z" />
<glyph unicode="Z" horiz-adv-x="1177" d="M87 0v46l691 1108h-377q-133 0 -179 -36q-34 -27 -58 -120l-10 -41h-43l17 272h874v-26l-707 -1128h461q133 0 179 36q34 27 58 119l11 41h42l-17 -271h-942z" />
<glyph unicode="[" horiz-adv-x="733" d="M239 -179v1567h415v-65h-282v-1437h282v-65h-415z" />
<glyph unicode="\" horiz-adv-x="711" d="M-75 1229l73 37l785 -1266l-73 -36z" />
<glyph unicode="]" horiz-adv-x="733" d="M80 -114h282v1437h-282v65h415v-1567h-415v65z" />
<glyph unicode="^" horiz-adv-x="993" d="M85 691l412 572l411 -572l-38 -31l-373 374l-376 -374z" />
<glyph unicode="_" horiz-adv-x="733" d="M-2 0h738v-90h-738v90z" />
<glyph unicode="`" horiz-adv-x="827" d="M41 1169q0 31 17 45.5t41 14.5q22 0 41.5 -10.5t48.5 -37.5l192 -179l-11 -14l-281 120q-15 9 -29 22q-19 20 -19 39z" />
<glyph unicode="a" horiz-adv-x="826" d="M77 145q0 119 130 195q106 60 307 97q0 121 -24 164q-29 49 -113 49q-43 0 -80.5 -25.5t-37.5 -71.5q0 -31 -20.5 -51.5t-49.5 -20.5t-49.5 20.5t-20.5 51.5q0 70 78.5 117t181.5 47q148 0 214 -66t66 -212v-311q0 -79 48 -79q15 0 28.5 8t27.5 23l29 -39 q-60 -63 -135 -63q-60 0 -95.5 30.5t-44.5 87.5q-73 -67 -132 -94.5t-122 -27.5q-80 0 -133 45.5t-53 125.5zM230 171q0 -49 28.5 -77.5t69.5 -28.5q38 0 73 17q46 22 113 82v208q-145 -32 -214.5 -82.5t-69.5 -118.5z" />
<glyph unicode="b" horiz-adv-x="1017" d="M5 1169v43l307 51v-667q48 58 111 89.5t140 31.5q147 0 251 -109.5t104 -266.5q0 -154 -104 -264.5t-251 -110.5q-82 0 -148.5 34.5t-114.5 101.5l-90 -136h-43v964q0 154 -29 196.5t-133 42.5zM312 210q29 -75 84 -118.5t125 -43.5q114 0 175 85q56 79 57 208 q0 130 -57 209q-61 85 -175 85q-68 0 -124 -44.5t-85 -117.5v-263z" />
<glyph unicode="c" horiz-adv-x="805" d="M99 324q0 171 119 287q109 106 243 106q121 0 182.5 -43t61.5 -106q0 -43 -26.5 -65t-64.5 -22q-32 0 -56 24t-24 58q0 46 -21 67.5t-52 21.5q-82 0 -139 -94t-57 -234q0 -128 61 -200.5t186 -72.5q55 0 111 23t107 71l36 -44q-125 -135 -305 -135q-167 0 -264.5 99 t-97.5 259z" />
<glyph unicode="d" horiz-adv-x="1051" d="M99 341q0 154 104 265t251 111q73 0 138 -31.5t113 -89.5v334q0 154 -29 196.5t-133 42.5v43l307 51v-964q0 -154 29 -196.5t133 -42.5v-43l-273 -51q-5 12 -16 54.5t-16 69.5q-46 -56 -110.5 -90t-142.5 -34q-147 0 -251 109t-104 266zM265 341q0 -130 58.5 -211.5 t173.5 -81.5q68 0 123.5 43.5t84.5 116.5v265q-29 75 -83.5 118.5t-124.5 43.5q-114 0 -173 -82t-59 -212z" />
<glyph unicode="e" horiz-adv-x="863" d="M99 341q0 159 115 267.5t264 108.5q119 0 203 -75t84 -183q0 -39 -9 -66h-495q-3 -17 -3 -36v-29q0 -126 67.5 -201.5t203.5 -75.5q51 0 115 26.5t110 67.5l36 -44q-55 -58 -141 -96.5t-171 -38.5q-167 0 -273 107.5t-106 267.5zM275 469h339q7 24 7 40q0 49 -36 85 q-43 41 -117 41q-68 0 -119.5 -44.5t-73.5 -121.5z" />
<glyph unicode="f" horiz-adv-x="640" d="M72 609v74h167v196q0 195 104 295q92 89 232 89q94 0 154 -51q51 -44 51 -101q0 -32 -17 -52.5t-51 -20.5q-43 0 -63 49q-46 109 -111 109q-80 0 -117 -71.5t-37 -245.5v-196h207v-74h-207v-327q0 -154 29 -196.5t133 -42.5v-43h-469v43q102 0 132 43.5t30 195.5v327 h-167z" />
<glyph unicode="g" horiz-adv-x="865" d="M38 -329q0 48 31.5 90.5t97.5 76.5l38 -22q-32 -36 -48.5 -70t-16.5 -63q0 -70 84 -113q75 -38 174 -38q101 0 177.5 44.5t76.5 114.5q0 67 -67.5 98.5t-207.5 45t-210 54.5q-82 48 -82 135q0 55 45.5 96.5t127.5 67.5q-79 38 -126 103.5t-47 147.5q0 116 90 197t216 81 q61 0 114 -19.5t97 -59.5q26 32 73 55.5t81 23.5q58 0 89 -32.5t31 -75.5q0 -26 -14.5 -45.5t-38.5 -19.5q-44 0 -63 46.5t-60 46.5q-31 0 -63 -33q60 -73 59 -165q0 -109 -79 -187t-187.5 -91.5t-147.5 -25.5q-81 -23 -81 -62q0 -36 61.5 -56t124.5 -20q198 -17 292 -96 q80 -67 80 -172q0 -125 -103 -200t-258 -75q-162 0 -261 64t-99 153zM242 439q0 -94 37.5 -153t111.5 -59q72 0 110 59t38 153t-37.5 152.5t-110.5 58.5q-72 0 -110.5 -59t-38.5 -152z" />
<glyph unicode="h" horiz-adv-x="1068" d="M39 0v43q102 0 132 43.5t30 195.5v648q0 154 -29 196.5t-133 42.5v43l307 51v-695q51 65 110 101q75 48 158 48q133 0 197 -87q56 -77 56 -219v-129q0 -154 29 -196.5t133 -42.5v-43h-452v43q97 0 121 39t24 200v119q0 104 -37.5 161.5t-117.5 57.5t-150.5 -60 t-70.5 -144v-134q0 -160 21.5 -199.5t106.5 -39.5v-43h-435z" />
<glyph unicode="i" horiz-adv-x="585" d="M77 0v43q102 0 132 43.5t30 195.5v102q0 154 -29 196.5t-133 42.5v43l307 51v-435q0 -154 29 -196.5t133 -42.5v-43h-469zM222 1009q0 36 25.5 63t63.5 27t64 -26t26 -64t-26.5 -64.5t-63.5 -26.5q-38 0 -63.5 25.5t-25.5 65.5z" />
<glyph unicode="j" horiz-adv-x="559" d="M-155 -379q0 60 59 60q48 0 80.5 -80.5t109.5 -80.5q68 0 102 62q43 77 43 258v544q0 154 -29 196.5t-133 42.5v43l307 51v-877q0 -189 -92 -294q-82 -92 -208 -92q-108 0 -178 58q-61 51 -61 109zM222 1009q0 36 25.5 63t63.5 27t64 -26t26 -64t-26.5 -64.5t-63.5 -26.5 q-38 0 -63.5 25.5t-25.5 65.5z" />
<glyph unicode="k" horiz-adv-x="901" d="M39 0v43q102 0 132 43.5t30 195.5v648q0 154 -29 196.5t-133 42.5v43l307 51v-870l173 139q36 31 36 57q0 51 -99 51v43h411v-43q-48 -5 -77 -12q-87 -20 -138 -61l-176 -144l331 -331q22 -22 59 -35.5t61 -13.5v-43h-227l-335 335l-19 -16v-37q0 -154 29 -196.5 t134 -42.5v-43h-470z" />
<glyph unicode="l" horiz-adv-x="547" d="M39 0v43q102 0 132 43.5t30 195.5v648q0 154 -29 196.5t-133 42.5v43l307 51v-981q0 -154 29 -196.5t134 -42.5v-43h-470z" />
<glyph unicode="m" horiz-adv-x="1592" d="M77 0v43q102 0 132 43.5t30 195.5v102q0 154 -29 196.5t-133 42.5v43l273 51q7 -15 19 -65.5t15 -83.5q51 65 109 101q75 48 159 48q90 0 142.5 -40t74.5 -114q39 58 114 103q87 51 172 51q128 0 186 -87q49 -75 50 -219v-129q0 -154 29 -196.5t133 -42.5v-43h-435v43 q85 0 106.5 39t21.5 200v119q0 106 -34 162.5t-113 56.5q-65 0 -131 -53q-81 -64 -81 -151v-134q0 -162 20.5 -200.5t107.5 -38.5v-43h-401v43q85 0 106.5 39t21.5 200v119q0 106 -34 162.5t-112 56.5q-65 0 -132 -53q-80 -65 -80 -151v-134q0 -160 21.5 -199.5t106.5 -39.5 v-43h-435z" />
<glyph unicode="n" horiz-adv-x="1136" d="M77 0v43q102 0 132 43.5t30 195.5v102q0 154 -29 196.5t-133 42.5v43l273 51q7 -15 19 -66t15 -83q51 63 113 101q79 48 172 48q131 0 201 -87q65 -82 65 -219v-129q0 -154 29 -196.5t133 -42.5v-43h-469v43q101 0 131.5 43.5t30.5 195.5v119q0 106 -37 159 q-43 60 -132 60q-90 0 -163.5 -60t-73.5 -144v-134q0 -159 24 -199t121 -40v-43h-452z" />
<glyph unicode="o" horiz-adv-x="1044" d="M99 341q0 154 121 265t292 111t292 -109.5t121 -266.5q0 -154 -121 -264.5t-292 -110.5t-292 109t-121 266zM265 341q0 -131 59 -210q67 -87 188 -87q119 0 183 84.5t64 212.5q0 131 -59 210q-67 87 -188 87q-119 0 -183 -84.5t-64 -212.5z" />
<glyph unicode="p" horiz-adv-x="1051" d="M39 -469q102 0 132 43.5t30 195.5v614q0 154 -29 196.5t-133 42.5v43l273 51q5 -12 16.5 -54.5t16.5 -70.5q46 56 110 90.5t142 34.5q147 0 251 -109.5t104 -266.5q0 -154 -104 -264.5t-251 -110.5q-73 0 -138 31.5t-113 89.5v-317q0 -154 29 -196.5t134 -42.5v-43h-470 v43zM346 210q29 -75 84 -118.5t125 -43.5q114 0 175 85q57 78 57 208t-57 209q-61 85 -175 85q-68 0 -124 -43.5t-85 -117.5v-264z" />
<glyph unicode="q" horiz-adv-x="1017" d="M99 341q0 154 104 265t251 111q82 0 148.5 -35t114.5 -102l90 137h43v-947q0 -154 29 -196.5t133 -42.5v-43h-469v43q102 0 132 43.5t30 195.5v317q-48 -58 -111 -89.5t-140 -31.5q-147 0 -251 109t-104 266zM265 341q0 -130 58.5 -211.5t173.5 -81.5q68 0 123.5 44.5 t84.5 117.5v263q-29 75 -83.5 118.5t-124.5 43.5q-114 0 -173 -82t-59 -212z" />
<glyph unicode="r" horiz-adv-x="805" d="M77 0v43q102 0 132 43.5t30 195.5v102q0 154 -29 196.5t-133 42.5v43l273 51q7 -15 19 -65.5t15 -83.5q31 60 94 104.5t123 44.5q77 0 123 -45q37 -35 37 -83q0 -39 -18.5 -67.5t-63.5 -28.5q-29 0 -50 21.5t-21 52.5q0 68 -65 68q-48 0 -98 -58q-61 -72 -61 -183v-112 q0 -154 29 -196.5t133 -42.5v-43h-469z" />
<glyph unicode="s" horiz-adv-x="662" d="M87 -34v299h43q0 -79 56 -149q67 -82 167 -82q49 0 82.5 30t33.5 74q0 38 -29 67t-85 60l-114 61q-70 38 -103.5 93t-33.5 112q0 82 61.5 134t146.5 52q53 0 94 -14q39 -17 79 -34q14 0 13 48h43v-237h-43q0 68 -42 117q-48 55 -125 55q-49 0 -76.5 -24t-27.5 -65 q0 -34 27.5 -59.5t97.5 -64.5l99 -55q141 -77 141 -196q0 -99 -70 -160.5t-174 -61.5q-43 0 -93 21.5t-100 43.5q-26 0 -25 -65h-43z" />
<glyph unicode="t" horiz-adv-x="604" d="M56 609v50q87 19 130 80t53 167h70v-223h177v-74h-177v-413q0 -148 92 -148q60 0 133 70l34 -34q-43 -53 -102.5 -85.5t-112.5 -32.5q-89 0 -136 54q-53 60 -53 176v413h-108z" />
<glyph unicode="u" horiz-adv-x="1068" d="M39 640v43h307v-401q0 -104 38 -161.5t118 -57.5q72 0 140 53q80 63 80 150v135q0 154 -29 196.5t-133 42.5v43h307v-384q0 -154 29 -196.5t133 -42.5v-43l-273 -51q-3 7 -12 39q-17 67 -22 91q-46 -48 -108 -84q-82 -46 -160 -46q-133 0 -196 87q-56 77 -57 218v130 q0 154 -29 196.5t-133 42.5z" />
<glyph unicode="v" horiz-adv-x="745" d="M-36 640v43h364v-43q-89 0 -89 -43q0 -24 24 -76l145 -328l136 328q2 3 12.5 32t10.5 43q0 44 -82 44v43h286v-43q-55 0 -85.5 -25.5t-59.5 -93.5l-232 -559h-41l-249 559q-31 68 -60 93.5t-80 25.5z" />
<glyph unicode="w" horiz-adv-x="1122" d="M-41 640v43h370v-43q-88 0 -88 -55q0 -28 15 -64l138 -320l167 482h45l208 -482l111 320q14 41 14 63q0 56 -74 56v43h287v-43q-55 0 -88 -26.5t-57 -92.5l-207 -559h-41l-203 473l-175 -473h-41l-241 559q-29 67 -60.5 93t-79.5 26z" />
<glyph unicode="x" horiz-adv-x="826" d="M3 0v43q31 0 73 27t107 92l155 164l-142 195q-55 70 -91.5 94.5t-87.5 24.5v43h413v-43q-102 0 -102 -38q0 -27 42 -81l65 -91l87 91q43 43 43 73q0 22 -24 34t-61 12v43h332v-43q-41 0 -88.5 -28t-107.5 -91l-140 -147l154 -212q48 -68 90.5 -93.5t105.5 -25.5v-43h-430 v43q94 0 94 42q0 27 -34 77l-77 108l-103 -108q-49 -49 -49 -78q0 -41 92 -41v-43h-316z" />
<glyph unicode="y" horiz-adv-x="762" d="M-39 640v43h363v-43q-48 0 -69 -9.5t-21 -34.5q0 -22 24 -75l150 -328l131 328q20 49 21 73q0 46 -80 46v43h286v-43q-49 0 -84 -27.5t-61 -91.5l-399 -997q-14 -34 -33.5 -55.5t-43.5 -21.5q-27 0 -44 14q-24 18 -24 54q0 38 53 89q70 68 102 150l103 256l-236 511 q-34 70 -61.5 94.5t-76.5 24.5z" />
<glyph unicode="z" horiz-adv-x="744" d="M68 0v34l391 584h-97q-133 0 -179 -27q-38 -22 -57 -94l-10 -41h-43l16 227h566v-34l-390 -584h124q133 0 175 24.5t61 96.5l10 41h43l-16 -227h-594z" />
<glyph unicode="{" horiz-adv-x="733" d="M85 589v34q111 38 144 82q53 73 53 273q0 137 53 225q44 73 134 135q2 2 176 101l34 -43q-140 -96 -184 -157q-68 -94 -68 -256q0 -210 -52 -287q-41 -61 -162 -90q119 -29 161 -89q53 -80 53 -288q0 -160 68 -255q48 -65 184 -158l-34 -43q-162 92 -174 101 q-90 61 -135 135q-55 92 -54 225q0 198 -53 271q-32 46 -144 84z" />
<glyph unicode="|" horiz-adv-x="552" d="M236 0v1451h90v-1451h-90z" />
<glyph unicode="}" horiz-adv-x="733" d="M55 -184q140 96 184 157q68 94 68 256q0 210 51 286q41 61 163 91q-119 29 -161 89q-53 80 -53 288q0 160 -68 254q-48 65 -184 159l34 43q162 -92 174 -101q90 -61 135 -135q55 -92 54 -225q0 -198 53 -271q32 -46 144 -84v-34q-111 -38 -144 -82q-53 -73 -53 -273 q0 -137 -53 -225q-44 -73 -134 -135q-2 -2 -176 -101z" />
<glyph unicode="~" horiz-adv-x="865" d="M90 411q0 116 50.5 190.5t125.5 74.5q56 0 176 -73.5t169 -73.5q43 0 72.5 33.5t45.5 94.5h42q0 -126 -51 -198t-136 -72q-49 0 -174 75.5t-163 75.5t-69 -36t-45 -91h-43z" />
<glyph unicode="&#xa1;" horiz-adv-x="640" d="M203 -283q24 159 43 364.5t19 471.5h68q0 -276 21.5 -468t43.5 -368q0 -41 -29 -70t-70 -29t-68.5 29t-27.5 70zM203 799q0 41 27.5 70t68.5 29t70 -29t29 -70t-29 -70t-70 -29t-68.5 29t-27.5 70z" />
<glyph unicode="&#xa2;" horiz-adv-x="914" d="M119 529q0 142 101 251q90 97 213 130v353h74v-341q126 0 193 -45q60 -39 59 -104q0 -43 -26 -65t-64 -22q-32 0 -56 24t-24 58q0 49 -23 69t-59 20v-596l60 -5q55 0 111 23t107 71l36 -45q-125 -135 -306 -134h-8v-342h-74v348q-140 24 -227 121.5t-87 230.5zM285 529 q0 -85 39 -150t109 -96v550q-63 -38 -105.5 -120t-42.5 -184z" />
<glyph unicode="&#xa3;" horiz-adv-x="1049" d="M77 0v43q128 0 162 41.5t34 197.5v327h-167v74h167v196q0 195 104 295q92 89 232 89q96 0 154 -53q51 -46 51 -104q0 -68 -68 -68q-43 0 -63 49q-46 109 -111 109q-80 0 -117 -71.5t-37 -245.5v-196h207v-74h-207v-295q0 -154 34 -196.5t162 -42.5h134q133 0 179 36 q34 27 58 119l10 41h43l-17 -271h-944z" />
<glyph unicode="&#xa4;" horiz-adv-x="1024" d="M179 258l94 94q-51 70 -51 163q0 44 13.5 86t37.5 78l-94 92l70 70l92 -93q73 53 166 52q90 0 164 -51l94 94l70 -70l-94 -94q51 -75 51 -164q0 -90 -51 -163l94 -96l-70 -70l-94 96q-73 -51 -164 -52q-90 0 -164 52l-94 -96zM331 515q0 -73 51 -124t125 -51 q73 0 124.5 51t51.5 124q0 72 -52 124t-124 52q-73 0 -124.5 -51t-51.5 -125z" />
<glyph unicode="&#xa5;" horiz-adv-x="1280" d="M-77 1186v43h582v-43q-77 0 -112 -16t-35 -49q0 -20 16 -51q9 -17 22 -39l293 -452l299 452q43 65 43 97q0 58 -152 58v43h478v-43q-142 0 -212 -68q-29 -27 -83 -111l-291 -437h202v-90h-251v-94h251v-91h-251v-13q0 -154 34 -196.5t162 -42.5v-43h-554v43 q128 0 162 41.5t34 197.5v13h-307v91h307v94h-307v90h249l-284 437q-67 102 -128 140.5t-167 38.5z" />
<glyph unicode="&#xa6;" horiz-adv-x="431" d="M171 0v614h90v-614h-90zM171 836v615h90v-615h-90z" />
<glyph unicode="&#xa7;" horiz-adv-x="814" d="M126 -34v351h41q15 -92 38 -136q70 -137 227 -137q79 0 126.5 41t47.5 116q0 46 -48 93q-39 38 -119 80l-140 71q-73 38 -118 94q-51 67 -51 147q0 48 20.5 92t56.5 75q-38 36 -57.5 79t-19.5 97q0 99 72.5 166.5t183.5 67.5q65 0 111.5 -14.5t84.5 -41.5q7 7 12 13 q12 17 17 45h39v-347h-41q-10 109 -56 179q-58 89 -159 89q-61 0 -104 -34t-43 -89q0 -51 45 -94q38 -36 133 -85l138 -72q77 -39 119 -98.5t42 -122.5q0 -109 -70 -188q70 -73 70 -156q0 -123 -84.5 -202t-207.5 -79q-68 0 -140 27q-48 20 -94 41q-14 -14 -22.5 -28.5 t-11.5 -39.5h-38zM247 720q0 -51 45 -94q38 -36 133 -85l138 -72l21 -12q22 39 22 87q0 46 -48 93q-39 38 -119 80l-140 71l-19 11q-32 -32 -33 -79z" />
<glyph unicode="&#xa8;" horiz-adv-x="634" d="M65 1275q0 34 23 57t57 23t57 -23t23 -57t-23 -57t-57 -23t-57 23t-23 57zM404 1275q0 34 23.5 57t57.5 23t57 -23t23 -57t-23 -57t-57 -23t-57.5 23t-23.5 57z" />
<glyph unicode="&#xa9;" horiz-adv-x="1399" d="M51 614q0 270 189.5 459.5t459.5 189.5t459 -189.5t189 -459.5t-189.5 -459t-458.5 -189q-270 0 -459.5 189.5t-189.5 458.5zM116 614q0 -242 170.5 -412.5t413.5 -170.5q242 0 412.5 170.5t170.5 412.5t-170.5 413t-412.5 171t-413 -170.5t-171 -413.5zM309 614 q0 177 121 303.5t295 126.5q65 0 132.5 -34t111.5 -87q7 7 17.5 37t15.5 54h34v-319h-36q-27 131 -98 205.5t-177 74.5q-142 0 -216 -122q-61 -99 -62 -239q0 -140 62 -239q75 -121 216 -121q106 0 177 74.5t98 207.5h36v-321h-34q-7 31 -14.5 55t-18.5 35q-43 -51 -111 -86 t-133 -35q-171 0 -293.5 126.5t-122.5 303.5z" />
<glyph unicode="&#xaa;" horiz-adv-x="832" d="M125 720q0 114 114 185q92 56 271 92q0 116 -23 159.5t-98 43.5q-36 0 -70 -25t-34 -67q0 -31 -17 -50t-44 -19q-26 0 -44 20t-18 49q0 68 68.5 111.5t160.5 43.5q130 0 188 -63t58 -202v-295q0 -73 42 -73q27 0 50 29l25 -38q-51 -60 -119 -60q-106 0 -123 111 q-65 -61 -117 -87.5t-107 -26.5q-68 0 -115.5 44.5t-47.5 117.5zM265 734q0 -41 23 -66t58 -25q31 0 64 17q44 24 100 77v198q-135 -34 -190 -77.5t-55 -123.5z" />
<glyph unicode="&#xab;" horiz-adv-x="1365" d="M171 548l674 445l31 -36l-477 -409l477 -408l-31 -38zM601 548l561 339l24 -39l-357 -300l357 -299l-24 -41z" />
<glyph unicode="&#xac;" horiz-adv-x="1167" d="M171 514v90h769v-351h-90v261h-679z" />
<glyph unicode="&#xad;" d="M171 425v90h597v-90h-597z" />
<glyph unicode="&#xae;" horiz-adv-x="1399" d="M51 614q0 270 189.5 459.5t459.5 189.5t459 -189.5t189 -459.5t-189.5 -459t-458.5 -189q-270 0 -459.5 189.5t-189.5 458.5zM116 614q0 -242 170.5 -412.5t413.5 -170.5q123 0 232.5 48.5t193.5 135.5h-204l-256 343h-64v-90q0 -138 26.5 -176.5t119.5 -38.5v-38h-413 v38q94 0 120 38t26 177v293q0 137 -27 176t-119 39v38h397q126 0 202 -64t76 -165q0 -85 -60.5 -147.5t-162.5 -76.5l116 -136q60 -73 124 -120q73 -53 130 -52q126 155 126 361q0 242 -170.5 413t-412.5 171t-413 -170.5t-171 -413.5zM602 625h122q73 0 112.5 46t39.5 114 q0 70 -36 113q-41 48 -116 47h-122v-320z" />
<glyph unicode="&#xaf;" horiz-adv-x="529" d="M44 1271v48h372v-48h-372z" />
<glyph unicode="&#xb0;" horiz-adv-x="819" d="M101 923q0 126 90.5 217t216.5 91t216.5 -90.5t90.5 -217.5q0 -126 -90.5 -216.5t-216.5 -90.5t-216.5 90.5t-90.5 216.5zM201 923q0 -85 61.5 -146.5t147.5 -61.5q85 0 146.5 61.5t61.5 146.5t-61.5 147t-146.5 62t-147 -61.5t-62 -147.5z" />
<glyph unicode="&#xb1;" d="M102 -2v91h734v-91h-734zM102 459v91h321v286h91v-286h322v-91h-322v-288h-91v288h-321z" />
<glyph unicode="&#xb2;" horiz-adv-x="687" d="M82 1070q0 79 64 136t173 57q104 0 178.5 -55.5t74.5 -147.5q0 -65 -40 -123q-26 -38 -83 -89l-183 -162h326l-19 -99h-477v46l271 243q51 46 70 83.5t19 95.5t-38.5 94.5t-101.5 36.5q-49 0 -88.5 -34t-39.5 -85q0 -46 34 -96l-55 -51q-43 31 -64 69t-21 81z" />
<glyph unicode="&#xb3;" horiz-adv-x="687" d="M97 1017l38 212h442v-48l-162 -193q80 -26 128.5 -83.5t48.5 -129.5q0 -90 -74 -156t-187 -66q-102 0 -167 49q-56 43 -56 91q0 38 40 37q14 0 58.5 -58t124.5 -58q70 0 106.5 47t36.5 114q0 55 -31.5 96.5t-85.5 51.5q-12 -12 -32.5 -46t-49.5 -34q-36 0 -36 36 q0 20 17 37l203 214h-177q-51 0 -84.5 -17t-43.5 -60l-11 -36h-46z" />
<glyph unicode="&#xb4;" horiz-adv-x="464" d="M15 1149l192 179q32 29 44 36q20 12 46 12t42 -20t16 -40t-14.5 -35.5t-33.5 -26.5l-281 -119z" />
<glyph unicode="&#xb5;" horiz-adv-x="1068" d="M39 -340q102 0 132 43.5t30 195.5v502q0 154 -29 196.5t-133 42.5v43h307v-401q0 -108 38.5 -163.5t134.5 -55.5q58 0 123 53q80 65 80 150v135q0 154 -29 196.5t-133 42.5v43h307v-384q0 -154 29 -196.5t133 -42.5v-43l-273 -51q-3 7 -12 39q-17 67 -22 91 q-46 -48 -108 -84q-82 -46 -160 -46q-60 0 -108 19v-86q0 -154 29 -196.5t134 -42.5v-42h-470v42z" />
<glyph unicode="&#xb6;" horiz-adv-x="1049" d="M102 881q0 143 102.5 245.5t246.5 102.5h479v-43q-128 0 -162 -41.5t-34 -197.5v-1014q0 -154 34 -196t162 -42v-43h-271v1486h-171v-1486h-271v43q128 0 162 41.5t34 196.5v603q-131 14 -221 112t-90 233z" />
<glyph unicode="&#xb7;" horiz-adv-x="597" d="M160 478q0 41 27.5 70t68.5 29t70 -29t29 -70t-29 -70t-70 -29t-68.5 29t-27.5 70z" />
<glyph unicode="&#xb8;" horiz-adv-x="447" d="M75 -162l222 220h92l-153 -155q63 0 112 -38q60 -46 60 -123q0 -75 -77 -129q-89 -63 -223 -81v57q90 27 132.5 64.5t42.5 88.5q0 36 -37.5 58.5t-90.5 22.5q-36 0 -80 -14v29z" />
<glyph unicode="&#xb9;" horiz-adv-x="687" d="M143 1176v43l260 52v-474q0 -106 21 -136t95 -30v-44h-352v44q75 0 96.5 30t21.5 136v225q0 102 -27.5 128t-114.5 26z" />
<glyph unicode="&#xba;" horiz-adv-x="1051" d="M152 906q0 148 106 252.5t257 104.5q150 0 257 -105t107 -252q0 -148 -106 -252t-258 -104q-150 0 -256.5 104.5t-106.5 251.5zM297 906q0 -125 55.5 -203t162.5 -78q106 0 162.5 79t56.5 202q0 125 -53 200q-58 82 -166 82q-106 0 -162 -79.5t-56 -202.5z" />
<glyph unicode="&#xbb;" horiz-adv-x="1365" d="M179 249l357 299l-357 300l24 39l562 -339l-562 -340zM490 140l476 408l-476 409l31 36l674 -445l-674 -446z" />
<glyph unicode="&#xbc;" horiz-adv-x="1745" d="M177 1176v43l260 52v-474q0 -106 21.5 -136t94.5 -30v-44h-352v44q75 0 96.5 30t21.5 136v225q0 102 -27 128t-115 26zM444 0l785 1266l73 -37l-785 -1265zM1034 189v36l354 470h49v-437q44 0 67 21t41 85l8 34h43l-12 -209h-147q0 -92 21.5 -118.5t94.5 -26.5v-44h-352 v44q75 0 96.5 26.5t21.5 118.5h-285zM1137 258h182v242z" />
<glyph unicode="&#xbd;" horiz-adv-x="1745" d="M177 1176v43l260 52v-474q0 -106 21.5 -136t94.5 -30v-44h-352v44q75 0 96.5 30t21.5 136v225q0 102 -27 128t-115 26zM444 0l785 1266l73 -37l-785 -1265zM1089 483q0 79 64 136t173 57q104 0 178.5 -55.5t74.5 -147.5q0 -65 -40 -123q-26 -38 -83 -89l-183 -162h326 l-19 -99h-477v46l271 242q39 32 64 74t25 94q0 73 -38.5 108t-108.5 35q-46 0 -83.5 -34t-37.5 -85q0 -46 34 -96l-55 -51q-43 31 -64 69t-21 81z" />
<glyph unicode="&#xbe;" horiz-adv-x="1745" d="M131 1017l38 212h442v-48l-162 -193q80 -26 128.5 -83.5t48.5 -129.5q0 -90 -74 -156t-187 -66q-102 0 -167 49q-56 43 -56 91q0 38 41 37q14 0 58 -58t124 -58q70 0 107 47t37 114q0 55 -32 96.5t-86 51.5q-12 -12 -32.5 -46t-49.5 -34q-36 0 -36 36q0 20 17 37l203 214 h-177q-51 0 -84.5 -17t-43.5 -60l-11 -36h-46zM444 0l785 1266l73 -37l-785 -1265zM1017 189v36l353 470h50v-437q44 0 67 21t40 85l9 34h43l-12 -209h-147q0 -92 21.5 -118.5t94.5 -26.5v-44h-352v44q75 0 96.5 26.5t21.5 118.5h-285zM1120 258h182v242z" />
<glyph unicode="&#xbf;" horiz-adv-x="1032" d="M155 -36q0 160 110 263q75 70 204 109q80 24 111 24v193h91v-336q-154 0 -256 -62q-123 -73 -123 -215q0 -118 93 -187.5t224 -69.5q108 0 173.5 42.5t65.5 95.5q0 24 -20.5 38.5t-68.5 14.5q-34 0 -57.5 22t-23.5 58q0 44 34 67t70 23q58 0 102 -49q51 -56 51 -140 q0 -97 -97 -167t-246 -70q-177 0 -302 90q-135 97 -135 256zM526 799q0 41 29 70t70 29t68 -29t27 -70t-27 -70t-68 -29t-70 29t-29 70z" />
<glyph unicode="&#xc0;" horiz-adv-x="1262" d="M-77 0v43q142 0 185 58q17 22 59 121l451 1041h27l452 -1041q51 -118 82 -143q43 -36 162 -36v-43h-568v43q181 0 181 80q0 31 -20 75l-99 229h-495l-99 -229q-19 -46 -19 -73q0 -82 179 -82v-43h-478zM352 1562q0 31 17 45.5t41 14.5q22 0 41.5 -10.5t48.5 -37.5 l192 -179l-11 -14l-281 120q-15 9 -29 22q-19 20 -19 39zM372 502h428l-215 493z" />
<glyph unicode="&#xc1;" horiz-adv-x="1262" d="M-77 0v43q142 0 185 58q17 22 59 121l451 1041h27l452 -1041q51 -118 82 -143q43 -36 162 -36v-43h-568v43q181 0 181 80q0 31 -20 75l-99 229h-495l-99 -229q-19 -46 -19 -73q0 -82 179 -82v-43h-478zM372 502h428l-215 493zM549 1395l192 179q32 29 44 36q20 12 46 12 t42 -20t16 -40t-14.5 -35.5t-33.5 -26.5l-281 -119z" />
<glyph unicode="&#xc2;" horiz-adv-x="1262" d="M-77 0v43q142 0 185 58q17 22 59 121l451 1041h27l452 -1041q51 -118 82 -143q43 -36 162 -36v-43h-568v43q181 0 181 80q0 31 -20 75l-99 229h-495l-99 -229q-19 -46 -19 -73q0 -82 179 -82v-43h-478zM372 502h428l-215 493zM382 1406l244 265l244 -265l-26 -24 l-218 156l-218 -156z" />
<glyph unicode="&#xc3;" horiz-adv-x="1262" d="M-77 0v43q142 0 185 58q17 22 59 121l451 1041h27l452 -1041q51 -118 82 -143q43 -36 162 -36v-43h-568v43q181 0 181 80q0 31 -20 75l-99 229h-495l-99 -229q-19 -46 -19 -73q0 -82 179 -82v-43h-478zM360 1400q0 89 37.5 144t94.5 55q41 0 131 -56t126 -56 q34 0 55.5 24.5t33.5 72.5h33q0 -97 -37.5 -150t-104.5 -53q-38 0 -130 56t-121 56t-53 -26t-34 -67h-31zM372 502h428l-215 493z" />
<glyph unicode="&#xc4;" horiz-adv-x="1262" d="M-77 0v43q142 0 185 58q17 22 59 121l451 1041h27l452 -1041q51 -118 82 -143q43 -36 162 -36v-43h-568v43q181 0 181 80q0 31 -20 75l-99 229h-495l-99 -229q-19 -46 -19 -73q0 -82 179 -82v-43h-478zM372 502h428l-215 493zM377 1461q0 34 23 57t57 23t57 -23t23 -57 t-23 -57t-57 -23t-57 23t-23 57zM716 1461q0 34 23.5 57t57.5 23t57 -23t23 -57t-23 -57t-57 -23t-57.5 23t-23.5 57z" />
<glyph unicode="&#xc5;" horiz-adv-x="1262" d="M-77 0v43q142 0 185 58q17 22 59 121l451 1041h27l452 -1041q51 -118 82 -143q43 -36 162 -36v-43h-568v43q181 0 181 80q0 31 -20 75l-99 229h-495l-99 -229q-19 -46 -19 -73q0 -82 179 -82v-43h-478zM372 502h428l-215 493zM456 1551q0 70 49.5 119.5t119.5 49.5 t119.5 -49.5t49.5 -119.5t-49.5 -119t-119.5 -49t-119.5 49.5t-49.5 118.5zM531 1551q0 -39 27.5 -66t66.5 -27t66.5 27t27.5 66t-27.5 66.5t-66.5 27.5t-66.5 -27t-27.5 -67z" />
<glyph unicode="&#xc6;" horiz-adv-x="1551" d="M-94 0v43q113 0 166.5 35t111.5 144l521 1007h665l18 -272h-43l-10 41q-22 90 -58 118q-48 38 -180 38h-201v-569h26q148 0 180.5 32.5t32.5 164.5h43v-468h-43q0 133 -29 162q-34 34 -184 34h-26v-196q0 -154 34 -196.5t162 -42.5h74q133 0 179 36q34 27 58 119l10 41 h43l-17 -271h-901v43q128 0 162 41.5t34 197.5v228h-316l-160 -312q-29 -55 -29 -89q0 -67 155 -66v-43h-478zM457 585h277v535z" />
<glyph unicode="&#xc7;" horiz-adv-x="1416" d="M145 614q0 266 184.5 457.5t443.5 191.5q108 0 204 -44.5t178 -129.5q20 17 41 49.5t29 68.5h41v-451h-42q-43 201 -157.5 314t-284.5 113q-225 0 -345 -188q-101 -157 -101 -381t99 -378q121 -189 347 -190q169 0 284 113.5t158 313.5h42v-451h-41q-9 38 -28 70.5 t-42 47.5q-82 -84 -178 -129t-204 -45l-94 -91q63 0 113 -37q60 -46 60 -123q0 -75 -77 -130q-89 -63 -224 -80v56q90 27 133 65t43 89q0 36 -37.5 58t-90.5 22q-36 0 -80 -13v29l162 162q-227 34 -381.5 217.5t-154.5 423.5z" />
<glyph unicode="&#xc8;" horiz-adv-x="1192" d="M77 0v43q128 0 162 41.5t34 197.5v665q0 154 -34 196.5t-162 42.5v43h935l17 -272h-43l-10 41q-22 90 -58 118q-48 38 -179 38h-304v-466h103q154 0 196.5 34t42.5 162h42v-468h-42q0 128 -42 162.5t-197 34.5h-103v-299q0 -154 34 -196.5t162 -42.5h176q133 0 179 36 q34 27 58 119l11 41h42l-17 -271h-1003zM328 1562q0 31 17 45.5t41 14.5q22 0 41.5 -10.5t48.5 -37.5l192 -179l-11 -14l-281 120q-15 9 -29 22q-19 20 -19 39z" />
<glyph unicode="&#xc9;" horiz-adv-x="1192" d="M77 0v43q128 0 162 41.5t34 197.5v665q0 154 -34 196.5t-162 42.5v43h935l17 -272h-43l-10 41q-22 90 -58 118q-48 38 -179 38h-304v-466h103q154 0 196.5 34t42.5 162h42v-468h-42q0 128 -42 162.5t-197 34.5h-103v-299q0 -154 34 -196.5t162 -42.5h176q133 0 179 36 q34 27 58 119l11 41h42l-17 -271h-1003zM462 1396l192 179q32 29 44 36q20 12 46 12t42 -20t16 -40t-14.5 -35.5t-33.5 -26.5l-281 -119z" />
<glyph unicode="&#xca;" horiz-adv-x="1192" d="M77 0v43q128 0 162 41.5t34 197.5v665q0 154 -34 196.5t-162 42.5v43h935l17 -272h-43l-10 41q-22 90 -58 118q-48 38 -179 38h-304v-466h103q154 0 196.5 34t42.5 162h42v-468h-42q0 128 -42 162.5t-197 34.5h-103v-299q0 -154 34 -196.5t162 -42.5h176q133 0 179 36 q34 27 58 119l11 41h42l-17 -271h-1003zM352 1406l244 265l244 -265l-26 -24l-218 156l-218 -156z" />
<glyph unicode="&#xcb;" horiz-adv-x="1192" d="M77 0v43q128 0 162 41.5t34 197.5v665q0 154 -34 196.5t-162 42.5v43h935l17 -272h-43l-10 41q-22 90 -58 118q-48 38 -179 38h-304v-466h103q154 0 196.5 34t42.5 162h42v-468h-42q0 128 -42 162.5t-197 34.5h-103v-299q0 -154 34 -196.5t162 -42.5h176q133 0 179 36 q34 27 58 119l11 41h42l-17 -271h-1003zM345 1461q0 34 23 57t57 23t57 -23t23 -57t-23 -57t-57 -23t-57 23t-23 57zM684 1461q0 34 23.5 57t57.5 23t57 -23t23 -57t-23 -57t-57 -23t-57.5 23t-23.5 57z" />
<glyph unicode="&#xcc;" horiz-adv-x="682" d="M77 0v43q128 0 162 41.5t34 197.5v665q0 154 -34 196.5t-162 42.5v43h554v-43q-128 0 -162 -41.5t-34 -197.5v-665q0 -154 34 -196.5t162 -42.5v-43h-554zM109 1562q0 31 17 45.5t41 14.5q22 0 41.5 -10.5t48.5 -37.5l192 -179l-11 -14l-281 120q-15 9 -29 22 q-19 20 -19 39z" />
<glyph unicode="&#xcd;" horiz-adv-x="682" d="M77 0v43q128 0 162 41.5t34 197.5v665q0 154 -34 196.5t-162 42.5v43h554v-43q-128 0 -162 -41.5t-34 -197.5v-665q0 -154 34 -196.5t162 -42.5v-43h-554zM239 1395l192 179q32 29 44 36q20 12 46 12t42 -20t16 -40t-14.5 -35.5t-33.5 -26.5l-281 -119z" />
<glyph unicode="&#xce;" horiz-adv-x="682" d="M77 0v43q128 0 162 41.5t34 197.5v665q0 154 -34 196.5t-162 42.5v43h554v-43q-128 0 -162 -41.5t-34 -197.5v-665q0 -154 34 -196.5t162 -42.5v-43h-554zM90 1406l244 265l244 -265l-26 -24l-218 156l-218 -156z" />
<glyph unicode="&#xcf;" horiz-adv-x="682" d="M77 0v43q128 0 162 41.5t34 197.5v665q0 154 -34 196.5t-162 42.5v43h554v-43q-128 0 -162 -41.5t-34 -197.5v-665q0 -154 34 -196.5t162 -42.5v-43h-554zM85 1461q0 34 23 57t57 23t57 -23t23 -57t-23 -57t-57 -23t-57 23t-23 57zM424 1461q0 34 23.5 57t57.5 23t57 -23 t23 -57t-23 -57t-57 -23t-57.5 23t-23.5 57z" />
<glyph unicode="&#xd0;" horiz-adv-x="1460" d="M34 572v92h239v283q0 154 -34 196.5t-162 42.5v43h556q340 0 519 -179q164 -164 164 -436q0 -271 -162 -433q-179 -181 -521 -181h-556v43q128 0 162 41.5t34 197.5v290h-239zM427 314q0 -154 34 -196.5t162 -42.5h10q275 0 400 179q96 138 95 360q0 222 -94 359 q-125 181 -401 181h-206v-490h204v-92h-204v-258z" />
<glyph unicode="&#xd1;" horiz-adv-x="1484" d="M77 0v43q128 0 162 41.5t34 197.5v665q0 154 -34 196.5t-162 42.5v43h290l787 -975v693q0 154 -34.5 196.5t-162.5 42.5v43h468v-43q-128 0 -162 -41.5t-34 -197.5v-981h-48l-833 1029v-713q0 -154 34 -196.5t162 -42.5v-43h-467zM471 1400q0 89 37.5 144t94.5 55 q41 0 131 -56t126 -56q34 0 55.5 24.5t33.5 72.5h33q0 -97 -37.5 -150t-104.5 -53q-38 0 -130 56t-121 56t-53 -26t-34 -67h-31z" />
<glyph unicode="&#xd2;" horiz-adv-x="1655" d="M145 614q0 268 200.5 458.5t482.5 190.5t482 -190.5t200 -458.5t-200.5 -458t-481.5 -190q-282 0 -482.5 190t-200.5 458zM340 614q0 -222 111 -378q133 -189 377 -190q242 0 375 188q113 159 113 380q0 222 -111 379q-133 190 -377 190q-242 0 -376 -188 q-113 -159 -112 -381zM587 1562q0 31 17 45.5t41 14.5q22 0 41.5 -10.5t48.5 -37.5l192 -179l-11 -14l-281 120q-15 9 -29 22q-19 20 -19 39z" />
<glyph unicode="&#xd3;" horiz-adv-x="1655" d="M145 614q0 268 200.5 458.5t482.5 190.5t482 -190.5t200 -458.5t-200.5 -458t-481.5 -190q-282 0 -482.5 190t-200.5 458zM340 614q0 -222 111 -378q133 -189 377 -190q242 0 375 188q113 159 113 380q0 222 -111 379q-133 190 -377 190q-242 0 -376 -188 q-113 -159 -112 -381zM684 1395l192 179q32 29 44 36q20 12 46 12t42 -20t16 -40t-14.5 -35.5t-33.5 -26.5l-281 -119z" />
<glyph unicode="&#xd4;" horiz-adv-x="1655" d="M145 614q0 268 200.5 458.5t482.5 190.5t482 -190.5t200 -458.5t-200.5 -458t-481.5 -190q-282 0 -482.5 190t-200.5 458zM340 614q0 -222 111 -378q133 -189 377 -190q242 0 375 188q113 159 113 380q0 222 -111 379q-133 190 -377 190q-242 0 -376 -188 q-113 -159 -112 -381zM579 1404l244 265l244 -265l-26 -24l-218 156l-218 -156z" />
<glyph unicode="&#xd5;" horiz-adv-x="1655" d="M145 614q0 268 200.5 458.5t482.5 190.5t482 -190.5t200 -458.5t-200.5 -458t-481.5 -190q-282 0 -482.5 190t-200.5 458zM340 614q0 -222 111 -378q133 -189 377 -190q242 0 375 188q113 159 113 380q0 222 -111 379q-133 190 -377 190q-242 0 -376 -188 q-113 -159 -112 -381zM570 1400q0 89 37.5 144t94.5 55q41 0 131 -56t126 -56q34 0 55.5 24.5t33.5 72.5h33q0 -97 -37.5 -150t-104.5 -53q-38 0 -130 56t-121 56t-53 -26t-34 -67h-31z" />
<glyph unicode="&#xd6;" horiz-adv-x="1655" d="M145 614q0 268 200.5 458.5t482.5 190.5t482 -190.5t200 -458.5t-200.5 -458t-481.5 -190q-282 0 -482.5 190t-200.5 458zM340 614q0 -222 111 -378q133 -189 377 -190q242 0 375 188q113 159 113 380q0 222 -111 379q-133 190 -377 190q-242 0 -376 -188 q-113 -159 -112 -381zM577 1461q0 34 23 57t57 23t57 -23t23 -57t-23 -57t-57 -23t-57 23t-23 57zM916 1461q0 34 23.5 57t57.5 23t57 -23t23 -57t-23 -57t-57 -23t-57.5 23t-23.5 57z" />
<glyph unicode="&#xd7;" horiz-adv-x="0" />
<glyph unicode="&#xd8;" horiz-adv-x="1655" d="M145 614q0 268 200.5 458.5t482.5 190.5q171 0 314 -73l78 128l74 -38l-82 -130q138 -90 218 -231t80 -305q0 -268 -200.5 -458t-481.5 -190q-82 0 -161.5 18.5t-149.5 53.5l-77 -125l-73 36l80 128q-140 89 -221 229.5t-81 307.5zM335 614q0 -125 41.5 -243t128.5 -202 l586 939q-109 75 -263 75q-244 0 -379 -188q-114 -160 -114 -381zM568 119q56 -36 118 -54.5t142 -18.5q244 0 379 188q114 160 114 380q0 123 -39 234q-44 124 -128 208z" />
<glyph unicode="&#xd9;" horiz-adv-x="1534" d="M46 1186v43h555v-43q-128 0 -162.5 -41.5t-34.5 -197.5v-502q0 -191 103 -291q97 -96 258 -96q169 0 268 94q108 102 107 293v502q0 154 -34 196.5t-162 42.5v43h479v-43q-128 0 -162 -41.5t-34 -197.5v-490q0 -232 -145 -367q-135 -125 -348 -124q-213 0 -348 124 q-143 133 -144 367v490q0 154 -34 196.5t-162 42.5zM474 1562q0 31 17 45.5t41 14.5q22 0 41.5 -10.5t48.5 -37.5l192 -179l-11 -14l-281 120q-15 9 -29 22q-19 20 -19 39z" />
<glyph unicode="&#xda;" horiz-adv-x="1534" d="M46 1186v43h555v-43q-128 0 -162.5 -41.5t-34.5 -197.5v-502q0 -191 103 -291q97 -96 258 -96q169 0 268 94q108 102 107 293v502q0 154 -34 196.5t-162 42.5v43h479v-43q-128 0 -162 -41.5t-34 -197.5v-490q0 -232 -145 -367q-135 -125 -348 -124q-213 0 -348 124 q-143 133 -144 367v490q0 154 -34 196.5t-162 42.5zM672 1395l192 179q32 29 44 36q20 12 46 12t42 -20t16 -40t-14.5 -35.5t-33.5 -26.5l-281 -119z" />
<glyph unicode="&#xdb;" horiz-adv-x="1534" d="M46 1186v43h555v-43q-128 0 -162.5 -41.5t-34.5 -197.5v-502q0 -191 103 -291q97 -96 258 -96q169 0 268 94q108 102 107 293v502q0 154 -34 196.5t-162 42.5v43h479v-43q-128 0 -162 -41.5t-34 -197.5v-490q0 -232 -145 -367q-135 -125 -348 -124q-213 0 -348 124 q-143 133 -144 367v490q0 154 -34 196.5t-162 42.5zM534 1406l244 265l244 -265l-26 -24l-218 156l-218 -156z" />
<glyph unicode="&#xdc;" horiz-adv-x="1534" d="M46 1186v43h555v-43q-128 0 -162.5 -41.5t-34.5 -197.5v-502q0 -191 103 -291q97 -96 258 -96q169 0 268 94q108 102 107 293v502q0 154 -34 196.5t-162 42.5v43h479v-43q-128 0 -162 -41.5t-34 -197.5v-490q0 -232 -145 -367q-135 -125 -348 -124q-213 0 -348 124 q-143 133 -144 367v490q0 154 -34 196.5t-162 42.5zM504 1463q0 34 23 57t57 23t57 -23t23 -57t-23 -57t-57 -23t-57 23t-23 57zM843 1463q0 34 23.5 57t57.5 23t57 -23t23 -57t-23 -57t-57 -23t-57.5 23t-23.5 57z" />
<glyph unicode="&#xdd;" horiz-adv-x="1280" d="M-77 1186v43h582v-43q-77 0 -112 -16t-35 -49q0 -20 16 -51q9 -17 22 -39l293 -452l299 452q43 65 43 97q0 58 -152 58v43h478v-43q-142 0 -212 -68q-29 -27 -83 -111l-340 -512v-213q0 -154 34 -196.5t162 -42.5v-43h-554v43q128 0 162 41.5t34 197.5v199l-342 526 q-67 102 -128 140.5t-167 38.5zM609 1396l192 179q32 29 44 36q20 12 46 12t42 -20t16 -40t-14.5 -35.5t-33.5 -26.5l-281 -119z" />
<glyph unicode="&#xde;" horiz-adv-x="1051" d="M39 -469q102 0 132 43.5t30 195.5v1160q0 154 -29 196.5t-133 42.5v43l307 51v-669q48 60 105 89q65 34 146 34q147 0 251 -109.5t104 -266.5q0 -154 -104 -264.5t-251 -110.5q-73 0 -138 31.5t-113 89.5v-317q0 -154 29 -196.5t134 -42.5v-43h-470v43zM346 210 q29 -75 84 -118.5t125 -43.5q114 0 175 85q57 78 57 208t-57 209q-61 85 -175 85q-68 0 -124 -43.5t-85 -117.5v-264z" />
<glyph unicode="&#xdf;" horiz-adv-x="1075" d="M77 0v43q102 0 132 43.5t30 195.5v358h-162v43q94 0 123 29q39 39 39 167q0 195 102 295q89 89 229 89q118 0 193 -73.5t75 -177.5q0 -99 -130 -264q-63 -80 -63 -159q0 -43 31 -75.5t94 -66.5l99 -54q142 -79 141 -205q0 -99 -70 -160.5t-174 -61.5q-43 0 -93 21.5 t-100 43.5q-26 0 -25 -65h-43v299h43q0 -79 56 -149q67 -82 167 -82q51 0 83.5 31t32.5 83q0 38 -31.5 72t-82.5 62l-114 61q-70 38 -103.5 97.5t-33.5 124.5q0 79 128 278q61 96 62 184q0 73 -38.5 121t-106.5 48q-84 0 -130 -70q-53 -80 -53 -247v-879h-307z" />
<glyph unicode="&#xe0;" horiz-adv-x="826" d="M77 145q0 119 130 195q106 60 307 97q0 121 -24 164q-29 49 -113 49q-43 0 -80.5 -25.5t-37.5 -71.5q0 -31 -20.5 -51.5t-49.5 -20.5t-49.5 20.5t-20.5 51.5q0 70 78.5 117t181.5 47q148 0 214 -66t66 -212v-311q0 -79 48 -79q15 0 28.5 8t27.5 23l29 -39 q-60 -63 -135 -63q-60 0 -95.5 30.5t-44.5 87.5q-73 -67 -132 -94.5t-122 -27.5q-80 0 -133 45.5t-53 125.5zM150 1017q0 31 17 45.5t41 14.5q22 0 41.5 -10.5t48.5 -37.5l192 -179l-11 -14l-281 120q-15 9 -29 22q-19 20 -19 39zM230 171q0 -49 28.5 -77.5t69.5 -28.5 q38 0 73 17q46 22 113 82v208q-145 -32 -214.5 -82.5t-69.5 -118.5z" />
<glyph unicode="&#xe1;" horiz-adv-x="826" d="M77 145q0 119 130 195q106 60 307 97q0 121 -24 164q-29 49 -113 49q-43 0 -80.5 -25.5t-37.5 -71.5q0 -31 -20.5 -51.5t-49.5 -20.5t-49.5 20.5t-20.5 51.5q0 70 78.5 117t181.5 47q148 0 214 -66t66 -212v-311q0 -79 48 -79q15 0 28.5 8t27.5 23l29 -39 q-60 -63 -135 -63q-60 0 -95.5 30.5t-44.5 87.5q-73 -67 -132 -94.5t-122 -27.5q-80 0 -133 45.5t-53 125.5zM230 171q0 -49 28.5 -77.5t69.5 -28.5q38 0 73 17q46 22 113 82v208q-145 -32 -214.5 -82.5t-69.5 -118.5zM286 850l192 179q32 29 44 36q20 12 46 12t42 -20 t16 -40t-14.5 -35.5t-33.5 -26.5l-281 -119z" />
<glyph unicode="&#xe2;" horiz-adv-x="826" d="M77 145q0 119 130 195q106 60 307 97q0 121 -24 164q-29 49 -113 49q-43 0 -80.5 -25.5t-37.5 -71.5q0 -31 -20.5 -51.5t-49.5 -20.5t-49.5 20.5t-20.5 51.5q0 70 78.5 117t181.5 47q148 0 214 -66t66 -212v-311q0 -79 48 -79q15 0 28.5 8t27.5 23l29 -39 q-60 -63 -135 -63q-60 0 -95.5 30.5t-44.5 87.5q-73 -67 -132 -94.5t-122 -27.5q-80 0 -133 45.5t-53 125.5zM137 860l244 265l244 -265l-26 -24l-218 156l-218 -156zM230 171q0 -49 28.5 -77.5t69.5 -28.5q38 0 73 17q46 22 113 82v208q-145 -32 -214.5 -82.5t-69.5 -118.5 z" />
<glyph unicode="&#xe3;" horiz-adv-x="826" d="M77 145q0 119 130 195q106 60 307 97q0 121 -24 164q-29 49 -113 49q-43 0 -80.5 -25.5t-37.5 -71.5q0 -31 -20.5 -51.5t-49.5 -20.5t-49.5 20.5t-20.5 51.5q0 70 78.5 117t181.5 47q148 0 214 -66t66 -212v-311q0 -79 48 -79q15 0 28.5 8t27.5 23l29 -39 q-60 -63 -135 -63q-60 0 -95.5 30.5t-44.5 87.5q-73 -67 -132 -94.5t-122 -27.5q-80 0 -133 45.5t-53 125.5zM128 855q0 89 37.5 144t94.5 55q41 0 131 -56t126 -56q34 0 55.5 24.5t33.5 72.5h33q0 -97 -37.5 -150t-104.5 -53q-38 0 -130 56t-121 56t-53 -26t-34 -67h-31z M230 171q0 -49 28.5 -77.5t69.5 -28.5q38 0 73 17q46 22 113 82v208q-145 -32 -214.5 -82.5t-69.5 -118.5z" />
<glyph unicode="&#xe4;" horiz-adv-x="826" d="M77 145q0 119 130 195q106 60 307 97q0 121 -24 164q-29 49 -113 49q-43 0 -80.5 -25.5t-37.5 -71.5q0 -31 -20.5 -51.5t-49.5 -20.5t-49.5 20.5t-20.5 51.5q0 70 78.5 117t181.5 47q148 0 214 -66t66 -212v-311q0 -79 48 -79q15 0 28.5 8t27.5 23l29 -39 q-60 -63 -135 -63q-60 0 -95.5 30.5t-44.5 87.5q-73 -67 -132 -94.5t-122 -27.5q-80 0 -133 45.5t-53 125.5zM137 917q0 34 23 57t57 23t57 -23t23 -57t-23 -57t-57 -23t-57 23t-23 57zM230 171q0 -49 28.5 -77.5t69.5 -28.5q38 0 73 17q46 22 113 82v208 q-145 -32 -214.5 -82.5t-69.5 -118.5zM476 917q0 34 23.5 57t57.5 23t57 -23t23 -57t-23 -57t-57 -23t-57.5 23t-23.5 57z" />
<glyph unicode="&#xe5;" horiz-adv-x="826" d="M77 145q0 119 130 195q106 60 307 97q0 121 -24 164q-29 49 -113 49q-43 0 -80.5 -25.5t-37.5 -71.5q0 -31 -20.5 -51.5t-49.5 -20.5t-49.5 20.5t-20.5 51.5q0 70 78.5 117t181.5 47q148 0 214 -66t66 -212v-311q0 -79 48 -79q15 0 28.5 8t27.5 23l29 -39 q-60 -63 -135 -63q-60 0 -95.5 30.5t-44.5 87.5q-73 -67 -132 -94.5t-122 -27.5q-80 0 -133 45.5t-53 125.5zM217 1003q0 70 49.5 119.5t119.5 49.5t119.5 -49.5t49.5 -119.5t-49.5 -119t-119.5 -49t-119.5 49.5t-49.5 118.5zM230 171q0 -49 28.5 -77.5t69.5 -28.5 q38 0 73 17q46 22 113 82v208q-145 -32 -214.5 -82.5t-69.5 -118.5zM292 1003q0 -39 27.5 -66t66.5 -27t66.5 27t27.5 66t-27.5 66.5t-66.5 27.5t-66.5 -27t-27.5 -67z" />
<glyph unicode="&#xe6;" horiz-adv-x="1278" d="M77 145q0 119 130 195q106 60 307 97q0 123 -24 164q-29 49 -113 49q-43 0 -80.5 -25.5t-37.5 -71.5q0 -31 -20.5 -51.5t-49.5 -20.5t-49.5 20.5t-20.5 51.5q0 70 78.5 117t181.5 47q188 0 247 -111q114 111 267 111q119 0 202.5 -75t83.5 -183q0 -39 -8 -66h-495 q-3 -17 -3.5 -36t-0.5 -29q0 -126 67.5 -201.5t204.5 -75.5q51 0 115 26.5t110 67.5l36 -44q-55 -58 -141 -96.5t-171 -38.5q-109 0 -195 48.5t-135 133.5q-56 -94 -126 -134t-174 -40q-80 0 -133 45.5t-53 125.5zM236 160q0 -44 25.5 -69.5t66.5 -25.5q44 0 95 32 q69 43 91 116v159q-148 -34 -213 -82t-65 -130zM689 469h340q7 24 7 40q0 51 -32 85q-39 41 -111 41q-82 0 -131 -43t-73 -123z" />
<glyph unicode="&#xe7;" horiz-adv-x="805" d="M99 324q0 171 119 287q109 106 243 106q121 0 182.5 -43t61.5 -106q0 -43 -26.5 -65t-64.5 -22q-32 0 -56 24t-24 58q0 46 -21 67.5t-52 21.5q-82 0 -139 -94t-57 -234q0 -128 61 -200.5t186 -72.5q55 0 111 23t107 71l36 -44q-58 -61 -132 -98t-154 -37l-91 -91 q63 0 113 -37q60 -46 59 -123q0 -75 -76 -130q-89 -63 -224 -80v56q90 27 133 65t43 89q0 36 -37.5 58t-90.5 22q-36 0 -80 -13v29l162 160q-137 22 -214.5 117t-77.5 236z" />
<glyph unicode="&#xe8;" horiz-adv-x="863" d="M99 341q0 159 115 267.5t264 108.5q119 0 203 -75t84 -183q0 -39 -9 -66h-495q-3 -17 -3 -36v-29q0 -126 67.5 -201.5t203.5 -75.5q51 0 115 26.5t110 67.5l36 -44q-55 -58 -141 -96.5t-171 -38.5q-167 0 -273 107.5t-106 267.5zM217 1017q0 31 17 45.5t41 14.5 q22 0 41.5 -10.5t48.5 -37.5l192 -179l-11 -14l-281 120q-15 9 -29 22q-19 20 -19 39zM275 469h339q7 24 7 40q0 49 -36 85q-43 41 -117 41q-68 0 -119.5 -44.5t-73.5 -121.5z" />
<glyph unicode="&#xe9;" horiz-adv-x="863" d="M99 341q0 159 115 267.5t264 108.5q119 0 203 -75t84 -183q0 -39 -9 -66h-495q-3 -17 -3 -36v-29q0 -126 67.5 -201.5t203.5 -75.5q51 0 115 26.5t110 67.5l36 -44q-55 -58 -141 -96.5t-171 -38.5q-167 0 -273 107.5t-106 267.5zM275 469h339q7 24 7 40q0 49 -36 85 q-43 41 -117 41q-68 0 -119.5 -44.5t-73.5 -121.5zM361 850l192 179q32 29 44 36q20 12 46 12t42 -20t16 -40t-14.5 -35.5t-33.5 -26.5l-281 -119z" />
<glyph unicode="&#xea;" horiz-adv-x="863" d="M99 341q0 159 115 267.5t264 108.5q119 0 203 -75t84 -183q0 -39 -9 -66h-495q-3 -17 -3 -36v-29q0 -126 67.5 -201.5t203.5 -75.5q51 0 115 26.5t110 67.5l36 -44q-55 -58 -141 -96.5t-171 -38.5q-167 0 -273 107.5t-106 267.5zM210 860l244 265l244 -265l-26 -24 l-218 156l-218 -156zM275 469h339q7 24 7 40q0 49 -36 85q-43 41 -117 41q-68 0 -119.5 -44.5t-73.5 -121.5z" />
<glyph unicode="&#xeb;" horiz-adv-x="863" d="M99 341q0 159 115 267.5t264 108.5q119 0 203 -75t84 -183q0 -39 -9 -66h-495q-3 -17 -3 -36v-29q0 -126 67.5 -201.5t203.5 -75.5q51 0 115 26.5t110 67.5l36 -44q-55 -58 -141 -96.5t-171 -38.5q-167 0 -273 107.5t-106 267.5zM208 917q0 34 23 57t57 23t57 -23t23 -57 t-23 -57t-57 -23t-57 23t-23 57zM275 469h339q7 24 7 40q0 49 -36 85q-43 41 -117 41q-68 0 -119.5 -44.5t-73.5 -121.5zM547 917q0 34 23.5 57t57.5 23t57 -23t23 -57t-23 -57t-57 -23t-57.5 23t-23.5 57z" />
<glyph unicode="&#xec;" horiz-adv-x="568" d="M24 1017q0 31 17 45.5t41 14.5q22 0 41.5 -10.5t48.5 -37.5l192 -179l-11 -14l-281 120q-15 9 -29 22q-19 20 -19 39zM77 0v43q102 0 132 43.5t30 195.5v102q0 154 -29 196.5t-133 42.5v43l307 51v-435q0 -154 29 -196.5t133 -42.5v-43h-469z" />
<glyph unicode="&#xed;" horiz-adv-x="568" d="M77 0v43q102 0 132 43.5t30 195.5v102q0 154 -29 196.5t-133 42.5v43l307 51v-435q0 -154 29 -196.5t133 -42.5v-43h-469zM177 850l192 179q32 29 44 36q20 12 46 12t42 -20t16 -40t-14.5 -35.5t-33.5 -26.5l-281 -119z" />
<glyph unicode="&#xee;" horiz-adv-x="568" d="M38 858l244 265l244 -265l-26 -24l-218 156l-218 -156zM77 0v43q102 0 132 43.5t30 195.5v102q0 154 -29 196.5t-133 42.5v43l307 51v-435q0 -154 29 -196.5t133 -42.5v-43h-469z" />
<glyph unicode="&#xef;" horiz-adv-x="568" d="M29 917q0 34 23 57t57 23t57 -23t23 -57t-23 -57t-57 -23t-57 23t-23 57zM77 0v43q102 0 132 43.5t30 195.5v102q0 154 -29 196.5t-133 42.5v43l307 51v-435q0 -154 29 -196.5t133 -42.5v-43h-469zM368 917q0 34 23.5 57t57.5 23t57 -23t23 -57t-23 -57t-57 -23t-57.5 23 t-23.5 57z" />
<glyph unicode="&#xf0;" horiz-adv-x="1075" d="M119 350q0 159 121.5 271.5t291.5 112.5q82 0 154 -34t111 -87q0 133 -37.5 262.5t-102.5 215.5l-278 -207l-56 58l276 207q-65 55 -152 54q-94 0 -179 -51t-97 -51q-22 0 -38 27q-7 12 -7 24q0 46 85.5 82t237.5 36q119 0 218 -70l166 123l58 -58l-161 -118 q104 -104 160.5 -264.5t56.5 -338.5q0 -317 -148 -467q-109 -111 -267 -111q-171 0 -292 112.5t-121 271.5zM268 352q0 -125 63 -209q73 -96 201 -95q128 0 202 131q65 116 65 321q-17 63 -95.5 107.5t-171.5 44.5q-128 0 -199 -94q-65 -84 -65 -206z" />
<glyph unicode="&#xf1;" horiz-adv-x="1136" d="M77 0v43q102 0 132 43.5t30 195.5v102q0 154 -29 196.5t-133 42.5v43l273 51q7 -15 19 -66t15 -83q51 63 113 101q79 48 172 48q131 0 201 -87q65 -82 65 -219v-129q0 -154 29 -196.5t133 -42.5v-43h-469v43q101 0 131.5 43.5t30.5 195.5v119q0 106 -37 159 q-43 60 -132 60q-90 0 -163.5 -60t-73.5 -144v-134q0 -159 24 -199t121 -40v-43h-452zM307 855q0 89 37.5 144t94.5 55q41 0 131 -56t126 -56q34 0 55.5 24.5t33.5 72.5h33q0 -97 -37.5 -150t-104.5 -53q-38 0 -130 56t-121 56t-53 -26t-34 -67h-31z" />
<glyph unicode="&#xf2;" horiz-adv-x="1044" d="M99 341q0 154 121 265t292 111t292 -109.5t121 -266.5q0 -154 -121 -264.5t-292 -110.5t-292 109t-121 266zM230 1017q0 31 17 45.5t41 14.5q22 0 41.5 -10.5t48.5 -37.5l192 -179l-11 -14l-281 120q-15 9 -29 22q-19 20 -19 39zM265 341q0 -131 59 -210q67 -87 188 -87 q119 0 183 84.5t64 212.5q0 131 -59 210q-67 87 -188 87q-119 0 -183 -84.5t-64 -212.5z" />
<glyph unicode="&#xf3;" horiz-adv-x="1044" d="M99 341q0 154 121 265t292 111t292 -109.5t121 -266.5q0 -154 -121 -264.5t-292 -110.5t-292 109t-121 266zM265 341q0 -131 59 -210q67 -87 188 -87q119 0 183 84.5t64 212.5q0 131 -59 210q-67 87 -188 87q-119 0 -183 -84.5t-64 -212.5zM389 850l192 179q32 29 44 36 q20 12 46 12t42 -20t16 -40t-14.5 -35.5t-33.5 -26.5l-281 -119z" />
<glyph unicode="&#xf4;" horiz-adv-x="1044" d="M99 341q0 154 121 265t292 111t292 -109.5t121 -266.5q0 -154 -121 -264.5t-292 -110.5t-292 109t-121 266zM253 860l244 265l244 -265l-26 -24l-218 156l-218 -156zM265 341q0 -131 59 -210q67 -87 188 -87q119 0 183 84.5t64 212.5q0 131 -59 210q-67 87 -188 87 q-119 0 -183 -84.5t-64 -212.5z" />
<glyph unicode="&#xf5;" horiz-adv-x="1044" d="M99 341q0 154 121 265t292 111t292 -109.5t121 -266.5q0 -154 -121 -264.5t-292 -110.5t-292 109t-121 266zM244 855q0 89 37.5 144t94.5 55q41 0 131 -56t126 -56q34 0 55.5 24.5t33.5 72.5h33q0 -97 -37.5 -150t-104.5 -53q-38 0 -130 56t-121 56t-53 -26t-34 -67h-31z M265 341q0 -131 59 -210q67 -87 188 -87q119 0 183 84.5t64 212.5q0 131 -59 210q-67 87 -188 87q-119 0 -183 -84.5t-64 -212.5z" />
<glyph unicode="&#xf6;" horiz-adv-x="1044" d="M99 341q0 154 121 265t292 111t292 -109.5t121 -266.5q0 -154 -121 -264.5t-292 -110.5t-292 109t-121 266zM244 917q0 34 23 57t57 23t57 -23t23 -57t-23 -57t-57 -23t-57 23t-23 57zM265 341q0 -131 59 -210q67 -87 188 -87q119 0 183 84.5t64 212.5q0 131 -59 210 q-67 87 -188 87q-119 0 -183 -84.5t-64 -212.5zM583 917q0 34 23.5 57t57.5 23t57 -23t23 -57t-23 -57t-57 -23t-57.5 23t-23.5 57z" />
<glyph unicode="&#xf7;" d="M171 408v90h597v-90h-597zM372 172q0 41 27.5 70t68.5 29t70 -29t29 -70t-29 -70t-70 -29t-68.5 29t-27.5 70zM372 734q0 41 27.5 70t68.5 29t70 -29t29 -70t-29 -70t-70 -29t-68.5 29t-27.5 70z" />
<glyph unicode="&#xf8;" horiz-adv-x="1051" d="M102 341q0 154 121.5 265t291.5 111q84 0 166 -33l53 86l73 -38l-53 -85q82 -53 128 -131.5t46 -174.5q0 -154 -121 -264.5t-292 -110.5q-43 0 -84.5 7.5t-82.5 24.5l-53 -85l-73 36l54 87q-82 53 -128 131.5t-46 173.5zM251 341q0 -73 18 -126.5t59 -96.5l309 495 q-51 26 -122 25q-130 0 -197 -83.5t-67 -213.5zM394 70q51 -26 121 -26q130 0 200 87q65 80 65 210q0 142 -77 224z" />
<glyph unicode="&#xf9;" horiz-adv-x="1068" d="M39 640v43h307v-401q0 -104 38 -161.5t118 -57.5q72 0 140 53q80 63 80 150v135q0 154 -29 196.5t-133 42.5v43h307v-384q0 -154 29 -196.5t133 -42.5v-43l-273 -51q-3 7 -12 39q-17 67 -22 91q-46 -48 -108 -84q-82 -46 -160 -46q-133 0 -196 87q-56 77 -57 218v130 q0 154 -29 196.5t-133 42.5zM227 1015q0 31 17 45.5t41 14.5q22 0 41.5 -10.5t48.5 -37.5l192 -179l-11 -14l-281 120q-15 9 -29 22q-19 20 -19 39z" />
<glyph unicode="&#xfa;" horiz-adv-x="1068" d="M39 640v43h307v-401q0 -104 38 -161.5t118 -57.5q72 0 140 53q80 63 80 150v135q0 154 -29 196.5t-133 42.5v43h307v-384q0 -154 29 -196.5t133 -42.5v-43l-273 -51q-3 7 -12 39q-17 67 -22 91q-46 -48 -108 -84q-82 -46 -160 -46q-133 0 -196 87q-56 77 -57 218v130 q0 154 -29 196.5t-133 42.5zM385 849l192 179q32 29 44 36q20 12 46 12t42 -20t16 -40t-14.5 -35.5t-33.5 -26.5l-281 -119z" />
<glyph unicode="&#xfb;" horiz-adv-x="1068" d="M39 640v43h307v-401q0 -104 38 -161.5t118 -57.5q72 0 140 53q80 63 80 150v135q0 154 -29 196.5t-133 42.5v43h307v-384q0 -154 29 -196.5t133 -42.5v-43l-273 -51q-3 7 -12 39q-17 67 -22 91q-46 -48 -108 -84q-82 -46 -160 -46q-133 0 -196 87q-56 77 -57 218v130 q0 154 -29 196.5t-133 42.5zM229 860l244 265l244 -265l-26 -24l-218 156l-218 -156z" />
<glyph unicode="&#xfc;" horiz-adv-x="1068" d="M39 640v43h307v-401q0 -104 38 -161.5t118 -57.5q72 0 140 53q80 63 80 150v135q0 154 -29 196.5t-133 42.5v43h307v-384q0 -154 29 -196.5t133 -42.5v-43l-273 -51q-3 7 -12 39q-17 67 -22 91q-46 -48 -108 -84q-82 -46 -160 -46q-133 0 -196 87q-56 77 -57 218v130 q0 154 -29 196.5t-133 42.5zM251 917q0 34 23 57t57 23t57 -23t23 -57t-23 -57t-57 -23t-57 23t-23 57zM590 917q0 34 23.5 57t57.5 23t57 -23t23 -57t-23 -57t-57 -23t-57.5 23t-23.5 57z" />
<glyph unicode="&#xfd;" horiz-adv-x="762" d="M-39 640v43h363v-43q-48 0 -69 -9.5t-21 -34.5q0 -22 24 -75l150 -328l131 328q20 49 21 73q0 46 -80 46v43h286v-43q-49 0 -84 -27.5t-61 -91.5l-399 -997q-14 -34 -33.5 -55.5t-43.5 -21.5q-27 0 -44 14q-24 18 -24 54q0 38 53 89q70 68 102 150l103 256l-236 511 q-34 70 -61.5 94.5t-76.5 24.5zM334 850l192 179q32 29 44 36q20 12 46 12t42 -20t16 -40t-14.5 -35.5t-33.5 -26.5l-281 -119z" />
<glyph unicode="&#xfe;" horiz-adv-x="1105" d="M77 0v43q128 0 162 41.5t34 197.5v691q0 137 -36 175t-160 38v43h554v-43q-123 0 -159.5 -38.5t-36.5 -174.5h183q203 0 321.5 -99t118.5 -248q0 -148 -117.5 -246t-322.5 -98h-183q0 -154 34 -196.5t162 -42.5v-43h-554zM435 357h181q126 0 193.5 76t67.5 193 q0 118 -63 191q-70 80 -198 81h-181v-541z" />
<glyph unicode="&#xff;" horiz-adv-x="762" d="M-39 640v43h363v-43q-48 0 -69 -9.5t-21 -34.5q0 -22 24 -75l150 -328l131 328q20 49 21 73q0 46 -80 46v43h286v-43q-49 0 -84 -27.5t-61 -91.5l-399 -997q-14 -34 -33.5 -55.5t-43.5 -21.5q-27 0 -44 14q-24 18 -24 54q0 38 53 89q70 68 102 150l103 256l-236 511 q-34 70 -61.5 94.5t-76.5 24.5zM114 917q0 34 23 57t57 23t57 -23t23 -57t-23 -57t-57 -23t-57 23t-23 57zM453 917q0 34 23.5 57t57.5 23t57 -23t23 -57t-23 -57t-57 -23t-57.5 23t-23.5 57z" />
<glyph unicode="&#x152;" horiz-adv-x="1913" d="M145 614q0 268 200.5 458.5t482.5 190.5q56 0 111.5 -8.5t108.5 -25.5h684l17 -272h-42l-11 41q-22 90 -58 118q-48 38 -179 38h-304v-466h103q154 0 196.5 34t42.5 162h42v-468h-42q0 128 -42 162.5t-197 34.5h-103v-299q0 -154 34.5 -196.5t162.5 -42.5h175 q133 0 180 36q34 27 58 119l10 41h43l-17 -271h-755q-106 -34 -218 -34q-282 0 -482.5 190t-200.5 458zM340 614q0 -222 111 -378q133 -189 377 -190q87 0 165 27v1082q-41 14 -78.5 21t-86.5 7q-242 0 -376 -188q-113 -159 -112 -381z" />
<glyph unicode="&#x153;" horiz-adv-x="1524" d="M99 341q0 154 121 265t292 111q99 0 183.5 -38.5t144.5 -108.5q116 147 298 147q119 0 203 -75t84 -183q0 -39 -8 -66h-495q-3 -17 -3.5 -36t-0.5 -29q0 -126 67.5 -201.5t204.5 -75.5q51 0 115 26.5t110 67.5l36 -44q-55 -58 -141 -96.5t-172 -38.5q-96 0 -174.5 38 t-127.5 105q-58 -67 -142.5 -105t-181.5 -38q-171 0 -292 109t-121 266zM265 341q0 -131 59 -210q67 -87 188 -87q119 0 183 84.5t64 212.5q0 131 -59 210q-67 87 -188 87q-119 0 -183 -84.5t-64 -212.5zM935 469h340q7 24 7 40q0 51 -33 85q-39 41 -111 41 q-82 0 -130.5 -43t-72.5 -123z" />
<glyph unicode="&#x178;" horiz-adv-x="1280" d="M-77 1186v43h582v-43q-77 0 -112 -16t-35 -49q0 -20 16 -51q9 -17 22 -39l293 -452l299 452q43 65 43 97q0 58 -152 58v43h478v-43q-142 0 -212 -68q-29 -27 -83 -111l-340 -512v-213q0 -154 34 -196.5t162 -42.5v-43h-554v43q128 0 162 41.5t34 197.5v199l-342 526 q-67 102 -128 140.5t-167 38.5zM408 1461q0 34 23 57t57 23t57 -23t23 -57t-23 -57t-57 -23t-57 23t-23 57zM747 1461q0 34 23.5 57t57.5 23t57 -23t23 -57t-23 -57t-57 -23t-57.5 23t-23.5 57z" />
<glyph unicode="&#x2c6;" horiz-adv-x="699" d="M70 1092l244 265l244 -265l-26 -24l-218 156l-218 -156z" />
<glyph unicode="&#x2dc;" horiz-adv-x="614" d="M44 1149q0 89 37.5 144t94.5 55q41 0 131 -56t126 -56q34 0 55.5 24.5t33.5 72.5h33q0 -97 -37.5 -150t-104.5 -53q-38 0 -130 56t-121 56t-53 -26t-34 -67h-31z" />
<glyph unicode="&#x2000;" horiz-adv-x="860" />
<glyph unicode="&#x2001;" horiz-adv-x="1720" />
<glyph unicode="&#x2002;" horiz-adv-x="860" />
<glyph unicode="&#x2003;" horiz-adv-x="1720" />
<glyph unicode="&#x2004;" horiz-adv-x="573" />
<glyph unicode="&#x2005;" horiz-adv-x="430" />
<glyph unicode="&#x2006;" horiz-adv-x="286" />
<glyph unicode="&#x2007;" horiz-adv-x="286" />
<glyph unicode="&#x2008;" horiz-adv-x="215" />
<glyph unicode="&#x2009;" horiz-adv-x="344" />
<glyph unicode="&#x200a;" horiz-adv-x="95" />
<glyph unicode="&#x2010;" d="M171 374v90h597v-90h-597z" />
<glyph unicode="&#x2011;" d="M171 374v90h597v-90h-597z" />
<glyph unicode="&#x2012;" d="M171 374v90h597v-90h-597z" />
<glyph unicode="&#x2013;" horiz-adv-x="1075" d="M-2 374v90h1077v-90h-1077z" />
<glyph unicode="&#x2014;" horiz-adv-x="1365" d="M-2 374v90h1367v-90h-1367z" />
<glyph unicode="&#x2018;" horiz-adv-x="515" d="M154 1133q0 63 33 96.5t78 33.5q41 0 68 -29t27 -70t-27.5 -70t-67.5 -29l-18 2q9 -61 34.5 -109.5t83.5 -109.5l-24 -24q-89 56 -141 151q-46 82 -46 158z" />
<glyph unicode="&#x2019;" horiz-adv-x="549" d="M148 848q58 60 83.5 108t34.5 111l-17 -2q-41 0 -68 29t-27 70t27 70t68 29q44 0 77.5 -33.5t33.5 -96.5q0 -73 -46 -157q-53 -96 -142 -152z" />
<glyph unicode="&#x201a;" horiz-adv-x="597" d="M155 -234q58 60 83.5 108t34.5 111l-17 -2q-41 0 -68.5 29t-27.5 70t27.5 70t68.5 29q44 0 77.5 -33.5t33.5 -96.5q0 -73 -46 -157q-53 -96 -142 -152z" />
<glyph unicode="&#x201c;" horiz-adv-x="855" d="M154 1133q0 63 33 96.5t78 33.5q41 0 68 -29t27 -70t-27.5 -70t-67.5 -29l-18 2q9 -61 34.5 -109.5t83.5 -109.5l-24 -24q-89 56 -141 151q-46 82 -46 158zM495 1133q0 63 33 96.5t78 33.5q41 0 68 -29t27 -70t-27 -70t-68 -29l-17 2q9 -61 34.5 -109.5t83.5 -109.5 l-24 -24q-89 56 -142 151q-46 82 -46 158z" />
<glyph unicode="&#x201d;" horiz-adv-x="855" d="M148 848q58 60 83.5 108t34.5 111l-17 -2q-41 0 -68 29t-27 70t27 70t68 29q44 0 77.5 -33.5t33.5 -96.5q0 -73 -46 -157q-53 -96 -142 -152zM490 848q58 60 83.5 108t34.5 111l-17 -2q-41 0 -68.5 29t-27.5 70t27.5 70t68.5 29q44 0 77 -33.5t33 -96.5q0 -73 -46 -157 q-53 -96 -141 -152z" />
<glyph unicode="&#x201e;" horiz-adv-x="855" d="M148 -234q58 60 83.5 108t34.5 111l-17 -2q-41 0 -68 29t-27 70t27 70t68 29q44 0 77.5 -33.5t33.5 -96.5q0 -73 -46 -157q-53 -96 -142 -152zM490 -234q58 60 83.5 108t34.5 111l-17 -2q-41 0 -68.5 29t-27.5 70t27.5 70t68.5 29q44 0 77 -33.5t33 -96.5q0 -73 -46 -157 q-53 -96 -141 -152z" />
<glyph unicode="&#x2022;" horiz-adv-x="552" d="M119 471q0 65 46 111t111 46t111 -46t46 -111t-46 -111t-111 -46t-111 46t-46 111z" />
<glyph unicode="&#x2026;" horiz-adv-x="1834" d="M203 82q0 41 27.5 70t68.5 29t70 -29t29 -70t-29 -70t-70 -29t-68.5 29t-27.5 70zM800 82q0 41 27.5 70t68.5 29t70 -29t29 -70t-29 -70t-70 -29t-68.5 29t-27.5 70zM1398 82q0 41 27 70t68 29t70 -29t29 -70t-29 -70t-70 -29t-68 29t-27 70z" />
<glyph unicode="&#x202f;" horiz-adv-x="344" />
<glyph unicode="&#x2039;" horiz-adv-x="1024" d="M171 548l674 445l31 -36l-477 -409l477 -408l-31 -38z" />
<glyph unicode="&#x203a;" horiz-adv-x="1024" d="M148 140l477 408l-477 409l31 36l674 -445l-674 -446z" />
<glyph unicode="&#x205f;" horiz-adv-x="430" />
<glyph unicode="&#x2122;" horiz-adv-x="2075" d="M44 1004l12 225h821l14 -225h-39l-9 37q-19 70 -51 91q-43 27 -162 27h-101v-476q0 -137 27.5 -176t119.5 -39v-38h-415v38q94 0 120.5 38t26.5 177v476h-103q-121 0 -158.5 -24t-54.5 -94l-10 -37h-38zM978 430v38q92 0 118.5 38t26.5 177v293q0 138 -26.5 176.5 t-118.5 38.5v38h273l268 -623l268 623h249v-38q-92 0 -118.5 -38.5t-26.5 -176.5v-293q0 -138 26.5 -176.5t118.5 -38.5v-38h-413v38q92 0 118.5 38t26.5 177v341l-270 -625h-23l-282 652v-368q0 -138 26.5 -176.5t118.5 -38.5v-38h-360z" />
<glyph unicode="&#xe000;" horiz-adv-x="682" d="M0 0v683h683v-683h-683z" />
</font>
</defs>
</svg>
